<svg width="586" height="305" viewBox="0 0 586 305" fill="none" xmlns="http://www.w3.org/2000/svg">
<path d="M6.64588 282.5C4.47439 284.5 1 286.5 1 286.5V305H6.08825H13.1147H20.1412H27.1676H34.1941H41.2206H48.2471H55.2735H62.3H69.3265H76.353H79.9118H86.9383H93.9648H100.991H108.018H115.044H122.071H129.097H136.124H143.15H150.176H157.203H164.229H171.256H178.282H185.309H192.335H199.362H206.388H213.415H220.441H227.468H234.494H241.52H248.547H255.573H262.6H269.626H276.653H283.679H290.706H297.732H304.759H311.785H317.169H318.812H324.196H331.222H338.249H345.275H352.301H359.328H366.354H373.381H380.407H387.434H394.46H401.487H408.513H415.539H422.566H429.593H436.619H443.646H450.672H455.965H462.991H470.018H477.044H484.071H491.097H498.124H505.15H512.176H519.203H526.229H529.788H536.815H543.841H550.868H557.894H564.921H571.947H578.974H586V39.0526C583.658 23.7298 581.316 8.40693 578.974 8.40693C576.631 8.40693 574.289 17.0007 571.947 17.8541C569.605 18.7076 567.263 18.2809 564.921 19.1343C562.578 19.9878 560.236 25.426 557.894 25.426C555.552 25.426 553.21 1 550.868 1C548.526 1 546.183 13.4297 543.841 13.4297C541.499 13.4297 539.157 4.80259 536.815 4.80259C534.473 4.80259 532.13 48.5677 529.788 64.2071C527.446 79.8464 528.572 98.6385 526.229 98.6385C523.887 98.6385 521.545 89.9506 519.203 89.9506C516.861 89.9506 514.519 101.157 512.176 101.157C509.834 101.157 507.492 97.0386 505.15 97.0386C502.808 97.0386 500.466 120.287 498.124 126.697C495.781 133.107 493.439 136.311 491.097 136.311C488.755 136.311 486.413 104.146 484.071 104.146C481.728 104.146 479.386 124.383 477.044 130.93C474.702 137.478 472.36 143.432 470.018 143.432C467.676 143.432 465.333 142.095 462.991 139.421C460.649 136.747 458.307 70.4598 455.965 68.6983C453.623 66.9369 453.014 67.2904 450.672 66.0562C448.33 64.822 445.988 62.8307 443.646 61.2933C441.303 59.7558 438.961 59.4223 436.619 56.8316C434.277 54.2409 431.935 49.7647 429.593 45.7491C427.25 41.7334 424.908 32.7377 422.566 32.7377C420.224 32.7377 417.882 60.2797 415.539 60.2797C413.197 60.2797 410.855 51.356 408.513 51.356C406.171 51.356 403.829 57.9408 401.487 61.1655C399.144 64.3903 396.802 70.7047 394.46 70.7047C392.118 70.7047 389.776 64.8144 387.434 64.6176C385.092 64.4208 382.749 64.5192 380.407 64.3224C378.065 64.1257 375.723 55.5783 373.381 52.6272C371.039 49.6761 368.697 49.9885 366.354 46.6159C364.012 43.2432 361.67 37.5372 359.328 32.3914C356.986 27.2455 354.644 15.7408 352.301 15.7408C349.959 15.7408 347.617 29.7525 345.275 32.7106C342.933 35.6687 340.591 37.1477 338.249 37.1477C335.906 37.1477 333.564 23.6206 331.222 23.6206C328.88 23.6206 326.538 31.525 324.196 35.4165C321.853 39.3081 319.511 39.2676 317.169 46.9699C314.827 54.6721 321.154 92.2148 318.812 92.2148C316.469 92.2148 314.127 69.8084 311.785 69.8084C309.443 69.8084 307.101 69.9728 304.759 70.3016C302.417 70.6304 300.074 89.3609 297.732 89.3609C295.39 89.3609 293.048 73.6362 290.706 73.6362C288.364 73.6362 286.021 73.9089 283.679 74.4542C281.337 74.9995 278.995 100.015 276.653 105.752C274.311 111.489 271.969 114.358 269.626 114.358C267.284 114.358 264.942 111.392 262.6 111.392C260.258 111.392 257.916 113.403 255.573 115.954C253.231 118.505 250.889 121.844 248.547 126.697C246.205 131.55 243.863 139.443 241.52 145.072C239.178 150.702 236.836 156.306 234.494 160.474C232.152 164.641 229.81 165.687 227.468 170.076C225.125 174.465 222.783 186.807 220.441 186.807C218.099 186.807 215.757 184.578 213.415 181.788C211.072 178.997 208.73 170.064 206.388 170.064C204.046 170.064 201.704 175.805 199.362 175.805C197.02 175.805 194.677 172.353 192.335 168.548C189.993 164.744 187.651 152.979 185.309 152.979C182.967 152.979 180.625 169.259 178.282 174.472C175.94 179.684 173.598 184.254 171.256 184.254C168.914 184.254 166.572 160.207 164.229 160.207C161.887 160.207 159.545 171.341 157.203 176.393C154.861 181.444 152.519 190.516 150.176 190.516C147.834 190.516 145.492 184.482 143.15 184.482C140.808 184.482 138.466 204.652 136.124 204.652C133.781 204.652 131.439 190.744 129.097 184.017C126.755 177.29 124.413 164.289 122.071 164.289C119.728 164.289 117.386 175.991 115.044 179.534C112.702 183.077 110.36 184.204 108.018 185.544C105.676 186.885 103.333 186.223 100.991 187.58C98.6491 188.936 96.3069 205.494 93.9648 205.494C91.6226 205.494 89.2805 191.649 86.9383 191.649C84.5961 191.649 82.254 195.44 79.9118 203.021C77.5697 210.603 78.6951 256.029 76.353 256.029C74.0108 256.029 71.6686 248.444 69.3265 248.444C66.9843 248.444 64.6422 250.699 62.3 253.468C59.9579 256.236 57.6157 262.124 55.2735 265.055C52.9314 267.987 50.5892 271.056 48.2471 271.056C45.9049 271.056 43.5628 267.805 41.2206 267.805C38.8784 267.805 36.5363 281.147 34.1941 281.147C31.852 281.147 29.5098 279.535 27.1676 279.535C24.8255 279.535 22.4833 281.422 20.1412 281.422C17.799 281.422 15.4569 281.116 13.1147 280.784C10.7726 280.452 8.98803 282.5 6.64588 282.5Z" fill="url(#paint0_linear)"/>
<path d="M1 287C3.60772 283.535 10.3455 280.452 12.6894 280.784C15.0333 281.116 17.3772 281.422 19.7211 281.422C22.065 281.422 24.4089 279.535 26.7528 279.535C29.0967 279.535 31.4406 281.147 33.7845 281.147C36.1284 281.147 38.4723 267.805 40.8162 267.805C43.1601 267.805 45.504 271.056 47.8479 271.056C50.1917 271.056 52.5357 267.987 54.8795 265.055C57.2234 262.124 59.5673 256.236 61.9112 253.468C64.2551 250.699 66.599 248.444 68.9429 248.444C71.2868 248.444 73.6307 256.029 75.9746 256.029C78.3185 256.029 77.1922 210.603 79.5361 203.021C81.88 195.44 84.2239 191.649 86.5678 191.649C88.9117 191.649 91.2556 205.494 93.5995 205.494C95.9434 205.494 98.2873 188.936 100.631 187.58C102.975 186.223 105.319 186.885 107.663 185.544C110.007 184.204 112.351 183.077 114.695 179.534C117.038 175.991 119.382 164.289 121.726 164.289C124.07 164.289 126.414 177.29 128.758 184.017C131.102 190.744 133.446 204.652 135.79 204.652C138.133 204.652 140.477 184.482 142.821 184.482C145.165 184.482 147.509 190.516 149.853 190.516C152.197 190.516 154.541 181.444 156.885 176.393C159.229 171.341 161.572 160.207 163.916 160.207C166.26 160.207 168.604 184.254 170.948 184.254C173.292 184.254 175.636 179.684 177.98 174.472C180.324 169.259 182.668 152.979 185.011 152.979C187.355 152.979 189.699 164.744 192.043 168.548C194.387 172.353 196.731 175.805 199.075 175.805C201.419 175.805 203.763 170.064 206.107 170.064C208.45 170.064 210.794 178.997 213.138 181.788C215.482 184.578 217.826 186.807 220.17 186.807C222.514 186.807 224.858 174.465 227.202 170.076C229.545 165.687 231.889 164.641 234.233 160.474C236.577 156.306 238.921 150.702 241.265 145.072C243.609 139.443 245.953 131.55 248.297 126.697C250.641 121.844 252.984 118.505 255.328 115.954C257.672 113.403 260.016 111.392 262.36 111.392C264.704 111.392 267.048 114.358 269.392 114.358C271.736 114.358 274.079 111.489 276.423 105.752C278.767 100.015 281.111 74.9995 283.455 74.4542C285.799 73.9089 288.143 73.6362 290.487 73.6362C292.831 73.6362 295.175 89.3609 297.518 89.3609C299.862 89.3609 302.206 70.6304 304.55 70.3016C306.894 69.9728 309.238 69.8084 311.582 69.8084C313.926 69.8084 318.613 92.2148 318.613 92.2148C318.613 92.2148 314.626 54.6721 316.97 46.9699C319.314 39.2676 321.658 39.3081 324.001 35.4165C326.345 31.525 328.689 23.6206 331.033 23.6206C333.377 23.6206 335.721 37.1477 338.065 37.1477C340.409 37.1477 342.753 35.6687 345.096 32.7106C347.44 29.7525 349.784 15.7408 352.128 15.7408C354.472 15.7408 356.816 27.2455 359.16 32.3914C361.504 37.5372 363.848 43.2432 366.192 46.6159C368.535 49.9885 370.879 49.6761 373.223 52.6272C375.567 55.5783 377.911 64.1257 380.255 64.3224C382.599 64.5192 384.943 64.4208 387.287 64.6176C389.63 64.8144 391.974 70.7047 394.318 70.7047C396.662 70.7047 399.006 64.3903 401.35 61.1655C403.694 57.9408 406.038 51.356 408.382 51.356C410.725 51.356 413.069 60.2797 415.413 60.2797C417.757 60.2797 420.101 32.7377 422.445 32.7377C424.789 32.7377 427.133 41.7334 429.477 45.7491C431.82 49.7647 434.164 54.2409 436.508 56.8316C438.852 59.4223 441.196 59.7558 443.54 61.2933C445.884 62.8307 448.228 64.822 450.572 66.0562C452.915 67.2904 453.524 66.9369 455.868 68.6983C458.212 70.4598 460.556 136.747 462.9 139.421C465.244 142.095 467.588 143.432 469.931 143.432C472.275 143.432 474.619 137.478 476.963 130.93C479.307 124.383 481.651 104.146 483.995 104.146C486.339 104.146 488.683 136.311 491.027 136.311C493.37 136.311 495.714 133.107 498.058 126.697C500.402 120.287 502.746 97.0386 505.09 97.0386C507.434 97.0386 509.778 101.157 512.122 101.157C514.466 101.157 516.809 89.9506 519.153 89.9506C521.497 89.9506 523.841 98.6385 526.185 98.6385C528.529 98.6385 527.403 79.8464 529.747 64.2071C532.09 48.5677 534.434 4.80259 536.778 4.80259C539.122 4.80259 541.466 13.4297 543.81 13.4297C546.154 13.4297 548.498 1 550.842 1C553.185 1 555.529 25.426 557.873 25.426C560.217 25.426 562.561 19.9878 564.905 19.1343C567.249 18.2809 569.593 18.7076 571.937 17.8541C574.281 17.0007 576.624 8.40693 578.968 8.40693C581.312 8.40693 583.656 23.7298 586 39.0526" stroke="#363C3C" stroke-linejoin="round"/>
<defs>
<linearGradient id="paint0_linear" x1="281.991" y1="1" x2="281.991" y2="305" gradientUnits="userSpaceOnUse">
<stop offset="0.263932" stop-color="#D7D7D7" stop-opacity="0.07"/>
<stop offset="1" stop-color="#171426" stop-opacity="0"/>
</linearGradient>
</defs>
</svg>
