<svg width="80" height="80" viewBox="0 0 80 80" fill="none" xmlns="http://www.w3.org/2000/svg">
<circle cx="40" cy="40" r="40" fill="url(#paint0_linear)"/>
<path fill-rule="evenodd" clip-rule="evenodd" d="M44.221 30.581C44.221 23.3421 40.7555 17.1174 38.1188 15.0916C38.1079 15.0847 37.9164 14.9748 37.9328 15.2655C37.9328 15.2683 37.9301 15.2697 37.9301 15.2739C37.7113 29.2495 30.6928 33.0367 26.8348 38.14C17.9305 49.9146 26.2112 62.8245 34.6438 65.2106C39.362 66.5448 33.5538 62.8481 32.8057 55.0388C31.9018 45.6001 44.221 38.3946 44.221 30.581Z" fill="white"/>
<path fill-rule="evenodd" clip-rule="evenodd" d="M48.8468 35.3388C48.7893 35.3013 48.7073 35.2762 48.6512 35.3653C48.4967 37.1253 46.6108 40.8873 44.2216 44.3433C36.1159 56.0637 40.7342 61.7152 43.3313 64.7496C44.8397 66.511 43.3313 64.7496 47.1004 62.9493C47.3971 62.8074 54.4553 59.0341 55.2197 50.4373C55.9596 42.1117 50.7135 36.8637 48.8468 35.3388Z" fill="#00ACE4"/>
<defs>
<linearGradient id="paint0_linear" x1="-11.9766" y1="22.7902" x2="25.6217" y2="95.5469" gradientUnits="userSpaceOnUse">
<stop stop-color="#2C344F"/>
<stop offset="1" stop-color="#1C2245"/>
</linearGradient>
</defs>
</svg>
