<svg width="20" height="20" viewBox="0 0 20 20" fill="none" xmlns="http://www.w3.org/2000/svg">
<path d="M11.5348 8.46517V1.53478C11.5348 0.613904 10.9209 0 10 0C9.07907 0 8.46522 0.613904 8.46522 1.53478V8.46517H1.53483C0.613948 8.46517 0 9.07908 0 10C0 10.4604 0.153487 10.7674 0.460461 11.0744C0.767436 11.3813 1.07441 11.5348 1.53483 11.5348H8.46522V18.4652C8.46522 18.9256 8.6187 19.2326 8.92563 19.5395C9.23261 19.8465 9.53958 20 10 20C10.9209 20 11.5349 19.3861 11.5349 18.4651V11.5348H18.4652C19.3861 11.5348 20 10.9209 20 10C20 9.07917 19.3861 8.46517 18.4652 8.46517H11.5348Z" fill="#656A6A"/>
</svg>
