<?xml version="1.0" encoding="UTF-8"?>
<svg width="99px" height="31px" viewBox="0 0 99 31" version="1.1" xmlns="http://www.w3.org/2000/svg" xmlns:xlink="http://www.w3.org/1999/xlink">
    <title>HBCH@2x</title>
    <defs>
        <path d="M19.6039604,-1.89947068e-14 L19.6037622,11.0748169 C18.7056859,10.8260184 17.759458,10.6930693 16.7821782,10.6930693 C10.9585816,10.6930693 6.23762376,15.4140271 6.23762376,21.2376238 C6.23762376,24.7048363 7.91105738,27.7811975 10.4943097,29.7030925 L-9.2863011e-14,29.7029703 L-9.2863011e-14,-1.89947068e-14 L19.6039604,-1.89947068e-14 Z" id="path-1"></path>
        <linearGradient x1="50%" y1="0%" x2="50%" y2="100%" id="linearGradient-3">
            <stop stop-color="#96CAFF" offset="0%"></stop>
            <stop stop-color="#0052FE" offset="100%"></stop>
        </linearGradient>
        <path d="M9.27166856,0.0514144847 C9.37479646,2.79186321 7.30051973,6.78438333 3.04883838,12.0289749 C-4.01775269,21.1154857 2.4724043,29.6590874 9.61050571,29.6590874 C16.7486071,29.6590874 23.2544523,22.0897152 17.1575863,13.0019654 C15.58037,10.4186008 12.1304213,6.46851784 11.6753794,5.04456769 C10.0707305,8.13538641 10.7135624,11.1621669 9.61050571,13.6885297 C8.63346914,16.2618916 12.8363685,19.9823582 9.78880566,19.7757327 C7.4619385,19.4135101 7.55555101,16.5092708 7.75115769,15.8276474 C9.97603105,8.12288288 10.482868,2.86413857 9.27166856,0.0514144847 Z" id="path-4"></path>
        <linearGradient x1="51.8846576%" y1="13.0142653%" x2="51.1659668%" y2="86.1927684%" id="linearGradient-6">
            <stop stop-color="#96CAFF" offset="0%"></stop>
            <stop stop-color="#0300CC" offset="100%"></stop>
        </linearGradient>
        <linearGradient x1="50%" y1="31.835801%" x2="50%" y2="100%" id="linearGradient-7">
            <stop stop-color="#7FA9FF" offset="0%"></stop>
            <stop stop-color="#021580" offset="100%"></stop>
        </linearGradient>
        <linearGradient x1="50%" y1="0%" x2="50%" y2="100%" id="linearGradient-8">
            <stop stop-color="#96CAFF" offset="0%"></stop>
            <stop stop-color="#0022E6" offset="100%"></stop>
        </linearGradient>
    </defs>
    <g id="页面-1" stroke="none" stroke-width="1" fill="none" fill-rule="evenodd">
        <g id="HBCH">
            <text font-family="Roboto-Bold, Roboto" font-size="24" font-weight="bold" fill="#FFFFFF">
                <tspan x="34" y="22">HBCH</tspan>
            </text>
            <g id="编组-10备份-6">
                <g id="路径-21-+-路径-20-蒙版">
                    <mask id="mask-2" fill="white">
                        <use xlink:href="#path-1"></use>
                    </mask>
                    <g id="蒙版"></g>
                    <g mask="url(#mask-2)">
                        <mask id="mask-5" fill="white">
                            <use xlink:href="#path-4"></use>
                        </mask>
                        <use id="蒙版" fill="url(#linearGradient-3)" xlink:href="#path-4"></use>
                        <path d="M5.55522385,14.8420089 C2.96187311,20.5380706 5.55522385,28.0509054 9.61050571,29.6590874 C13.6657876,31.2672695 25.9621051,24.6817537 17.1575863,13.0019654 C15.58037,10.4186008 12.1304213,6.46851784 11.6753794,5.04456769 C11.0462511,5.76100625 10.1304895,9.33942987 11.1400251,13.0019654 C12.1495607,16.6645008 12.8363685,19.9823582 9.78880566,19.7757327 C7.4619385,19.4135101 7.55555101,16.5092708 7.75115769,15.8276474 C11.0884677,4.27050061 11.9327459,6.97512165 5.55522385,14.8420089 Z" id="蒙版" fill="url(#linearGradient-6)" mask="url(#mask-5)"></path>
                        <path d="M11.9805566,4.39332013 C11.1095603,5.8925558 11.28057,8.28150395 12.4935856,11.5601646 C14.313109,16.4781555 17.6769979,22.7035883 11.9805566,25.081264 C8.45067444,26.30842 4.62534087,22.2889 7.20707326,13.2214721 C8.9282282,7.17652014 10.5193893,4.23380282 11.9805566,4.39332013 Z" id="路径-21" fill="url(#linearGradient-7)" mask="url(#mask-5)"></path>
                        <path d="M9.21269322,-0.29415328 C9.35637428,4.13327697 8.33926358,8.23620499 6.16136112,12.0146308 C2.89450743,17.6822694 -1.03744209,26.5356531 7.10251328,29.3226647 C12.5291502,31.1806724 15.2787446,30.7149743 15.3512964,27.9255704 C11.4188228,29.7436785 8.66922839,28.58067 7.10251328,24.4365448 C6.20606024,22.3635901 7.44584668,16.4212041 7.75115769,15.8276474 C7.95469836,15.431943 9.05403758,11.1848082 11.0491753,3.08624322 L9.21269322,-0.29415328 Z" id="路径-20" fill="url(#linearGradient-8)" mask="url(#mask-5)"></path>
                    </g>
                </g>
                <g id="Group-4" transform="translate(8.019802, 12.475248)">
                    <path d="M6.46039604,17.0096503 C1.91565447,15.8192739 -0.893302025,11.1452538 0.215346535,6.5421732 C1.40792091,1.91565219 6.08251557,-0.892689893 10.7673267,0.21807244 C15.3121748,1.40825021 18.1203237,6.08280868 17.0123762,10.6855496 C15.81937,15.3124103 11.1447753,18.120214 6.46039604,17.0096503 Z" id="Fill-1-Copy-5" fill="#8DC352"></path>
                    <path d="M10.1774492,7.78613133 C9.96787922,8.62917292 8.67426058,8.20084998 8.25490883,8.09584177 L8.62493753,6.60574557 C9.04428928,6.71075377 10.3956984,6.90674075 10.1774492,7.78613133 M9.94755727,10.1904791 C9.71787699,11.1170596 8.16388346,10.6164638 7.65985696,10.4906241 L8.06820099,8.84769202 C8.5720158,8.97395695 10.1876102,9.22414856 9.94755727,10.1904791 M11.6457096,7.79952307 C11.7805541,6.89441185 11.0942652,6.40784549 10.1556455,6.08325535 L10.4602629,4.85716763 L9.71703024,4.67117132 L9.42066858,5.86494881 C9.22528157,5.81605835 9.02460239,5.76993127 8.82540502,5.72422931 L9.12367186,4.52258683 L8.38107422,4.33659051 L8.07645677,5.56225309 C7.91472798,5.5252664 7.75596281,5.48870484 7.60185475,5.45023017 L7.60270149,5.44640396 L6.57771353,5.18941019 L6.37999797,5.98653726 C6.37999797,5.98653726 6.93144234,6.11343989 6.91958787,6.12130488 C7.22081833,6.19676624 7.27522186,6.39679199 7.26611933,6.55536714 L6.43207294,9.91414175 C6.39523942,10.0059708 6.30167381,10.1435018 6.09146872,10.0914228 C6.09866608,10.1022637 5.55124376,9.9560175 5.55124376,9.9560175 L5.1820618,10.8105377 L6.14947093,11.0528643 C6.32919311,11.0981412 6.5055283,11.1453311 6.67932324,11.1899702 L6.37153049,12.4300873 L7.11391644,12.6160837 L7.41853389,11.3889331 C7.62132994,11.4442006 7.81798707,11.4952167 8.01083384,11.5434695 L7.70727482,12.7644556 L8.45050752,12.9504519 L8.75808859,11.7128856 C10.0252464,11.9537242 10.9784725,11.856581 11.3796191,10.7057421 C11.702865,9.77916157 11.3635309,9.24434245 10.6967172,8.89551964 C11.182327,8.78285902 11.5481219,8.46209509 11.6457096,7.79952307" id="Fill-4-Copy-2" fill="#FFFFFF" transform="translate(8.422354, 8.643521) rotate(-30.000000) translate(-8.422354, -8.643521) "></path>
                </g>
            </g>
        </g>
    </g>
</svg>