<?xml version="1.0" encoding="UTF-8"?>
<svg width="97px" height="31px" viewBox="0 0 97 31" version="1.1" xmlns="http://www.w3.org/2000/svg" xmlns:xlink="http://www.w3.org/1999/xlink">
    <title>HBTC@2x</title>
    <defs>
        <path d="M19.6039604,-1.89947068e-14 L19.6037622,11.0748169 C18.7056859,10.8260184 17.759458,10.6930693 16.7821782,10.6930693 C10.9585816,10.6930693 6.23762376,15.4140271 6.23762376,21.2376238 C6.23762376,24.7048363 7.91105738,27.7811975 10.4943097,29.7030925 L-9.2863011e-14,29.7029703 L-9.2863011e-14,-1.89947068e-14 L19.6039604,-1.89947068e-14 Z" id="path-1"></path>
        <linearGradient x1="50%" y1="0%" x2="50%" y2="100%" id="linearGradient-3">
            <stop stop-color="#96CAFF" offset="0%"></stop>
            <stop stop-color="#0052FE" offset="100%"></stop>
        </linearGradient>
        <path d="M9.27166856,0.0514144847 C9.37479646,2.79186321 7.30051973,6.78438333 3.04883838,12.0289749 C-4.01775269,21.1154857 2.4724043,29.6590874 9.61050571,29.6590874 C16.7486071,29.6590874 23.2544523,22.0897152 17.1575863,13.0019654 C15.58037,10.4186008 12.1304213,6.46851784 11.6753794,5.04456769 C10.0707305,8.13538641 10.7135624,11.1621669 9.61050571,13.6885297 C8.63346914,16.2618916 12.8363685,19.9823582 9.78880566,19.7757327 C7.4619385,19.4135101 7.55555101,16.5092708 7.75115769,15.8276474 C9.97603105,8.12288288 10.482868,2.86413857 9.27166856,0.0514144847 Z" id="path-4"></path>
        <linearGradient x1="51.8846576%" y1="13.0142653%" x2="51.1659668%" y2="86.1927684%" id="linearGradient-6">
            <stop stop-color="#96CAFF" offset="0%"></stop>
            <stop stop-color="#0300CC" offset="100%"></stop>
        </linearGradient>
        <linearGradient x1="50%" y1="31.835801%" x2="50%" y2="100%" id="linearGradient-7">
            <stop stop-color="#7FA9FF" offset="0%"></stop>
            <stop stop-color="#021580" offset="100%"></stop>
        </linearGradient>
        <linearGradient x1="50%" y1="0%" x2="50%" y2="100%" id="linearGradient-8">
            <stop stop-color="#96CAFF" offset="0%"></stop>
            <stop stop-color="#0022E6" offset="100%"></stop>
        </linearGradient>
    </defs>
    <g id="页面-1" stroke="none" stroke-width="1" fill="none" fill-rule="evenodd">
        <g id="HBTC">
            <text font-family="Roboto-Bold, Roboto" font-size="24" font-weight="bold" fill="#FFFFFF">
                <tspan x="34" y="22">HBTC</tspan>
            </text>
            <g id="编组-10备份-6">
                <g id="路径-21-+-路径-20-蒙版">
                    <mask id="mask-2" fill="white">
                        <use xlink:href="#path-1"></use>
                    </mask>
                    <g id="蒙版"></g>
                    <g mask="url(#mask-2)">
                        <mask id="mask-5" fill="white">
                            <use xlink:href="#path-4"></use>
                        </mask>
                        <use id="蒙版" fill="url(#linearGradient-3)" xlink:href="#path-4"></use>
                        <path d="M5.55522385,14.8420089 C2.96187311,20.5380706 5.55522385,28.0509054 9.61050571,29.6590874 C13.6657876,31.2672695 25.9621051,24.6817537 17.1575863,13.0019654 C15.58037,10.4186008 12.1304213,6.46851784 11.6753794,5.04456769 C11.0462511,5.76100625 10.1304895,9.33942987 11.1400251,13.0019654 C12.1495607,16.6645008 12.8363685,19.9823582 9.78880566,19.7757327 C7.4619385,19.4135101 7.55555101,16.5092708 7.75115769,15.8276474 C11.0884677,4.27050061 11.9327459,6.97512165 5.55522385,14.8420089 Z" id="蒙版" fill="url(#linearGradient-6)" mask="url(#mask-5)"></path>
                        <path d="M11.9805566,4.39332013 C11.1095603,5.8925558 11.28057,8.28150395 12.4935856,11.5601646 C14.313109,16.4781555 17.6769979,22.7035883 11.9805566,25.081264 C8.45067444,26.30842 4.62534087,22.2889 7.20707326,13.2214721 C8.9282282,7.17652014 10.5193893,4.23380282 11.9805566,4.39332013 Z" id="路径-21" fill="url(#linearGradient-7)" mask="url(#mask-5)"></path>
                        <path d="M9.21269322,-0.29415328 C9.35637428,4.13327697 8.33926358,8.23620499 6.16136112,12.0146308 C2.89450743,17.6822694 -1.03744209,26.5356531 7.10251328,29.3226647 C12.5291502,31.1806724 15.2787446,30.7149743 15.3512964,27.9255704 C11.4188228,29.7436785 8.66922839,28.58067 7.10251328,24.4365448 C6.20606024,22.3635901 7.44584668,16.4212041 7.75115769,15.8276474 C7.95469836,15.431943 9.05403758,11.1848082 11.0491753,3.08624322 L9.21269322,-0.29415328 Z" id="路径-20" fill="url(#linearGradient-8)" mask="url(#mask-5)"></path>
                    </g>
                </g>
                <g id="Group-3" transform="translate(8.019802, 12.772277)" fill="#F7931A">
                    <path d="M10.6965376,0.257780158 C15.3121748,1.40825021 18.1203237,6.08280868 16.9699814,10.6973403 C15.81937,15.3124103 11.1447753,18.120214 6.52940725,16.9700131 C1.91565447,15.8192739 -0.893302025,11.1452538 0.25811708,6.53099133 C1.40792091,1.91565219 6.08251557,-0.892689893 10.6965376,0.257780158 Z M8.3889104,3.07637907 L8.00021474,4.59620067 C7.79384679,4.55033716 7.59126045,4.50500083 7.39461664,4.45729224 L7.3956971,4.45254774 L6.08779969,4.13387547 L5.83551216,5.12231303 C5.83551216,5.12231303 5.94809614,5.14749052 6.08222883,5.17832766 L6.28820998,5.22638839 C6.42113255,5.25800574 6.53008618,5.28552385 6.52403561,5.28942488 C6.90840942,5.38299697 6.97782901,5.6310289 6.96621406,5.82766208 L5.90196048,9.9925426 C5.85496045,10.1064106 5.73556957,10.276949 5.46734525,10.2123711 C5.47652917,10.2258139 4.77801146,10.0444685 4.77801146,10.0444685 L4.30693069,11.1040736 L5.5413568,11.4045586 C5.77068453,11.4607019 5.99569043,11.5192174 6.21745494,11.5745699 L5.82470756,13.1123151 L6.77200129,13.3429506 L7.16069695,11.8212839 C7.41946723,11.8898156 7.67040418,11.9530756 7.91647905,12.012909 L7.52913397,13.5269318 L8.47750816,13.7575672 L8.86998543,12.2229849 C10.4868945,12.5216249 11.7032229,12.4011673 12.2150911,10.974127 C12.6275569,9.82516718 12.1945623,9.16199147 11.3436997,8.72945119 C11.9633438,8.58975201 12.4301027,8.19200474 12.5546258,7.37041543 C12.7266891,6.24807752 11.8509759,5.64473524 10.6532855,5.24224346 L11.0419811,3.72189469 L10.0936069,3.49125926 L9.71544576,4.97154336 C9.4661295,4.91091919 9.21006037,4.8537216 8.95588204,4.79705118 L9.33647424,3.3070145 L8.3889104,3.07637907 Z M7.98968025,8.67014493 C8.63255424,8.82671344 10.6940728,9.13695105 10.3877623,10.335201 C10.0946874,11.4841608 8.11177229,10.863422 7.46862818,10.7073807 L7.98968025,8.67014493 Z M8.70008302,5.89013133 C9.23518107,6.02034151 10.959596,6.26336536 10.6811073,7.35380968 C10.4136933,8.39918125 8.76301984,7.8680608 8.22792179,7.73785062 L8.70008302,5.89013133 Z" id="形状结合"></path>
                </g>
            </g>
        </g>
    </g>
</svg>