<?xml version="1.0" encoding="UTF-8"?>
<svg width="85px" height="31px" viewBox="0 0 85 31" version="1.1" xmlns="http://www.w3.org/2000/svg" xmlns:xlink="http://www.w3.org/1999/xlink">
    <title>HFIL@3x</title>
    <defs>
        <path d="M19.6039604,-1.89947068e-14 L19.6037622,11.0748169 C18.7056859,10.8260184 17.759458,10.6930693 16.7821782,10.6930693 C10.9585816,10.6930693 6.23762376,15.4140271 6.23762376,21.2376238 C6.23762376,24.7048363 7.91105738,27.7811975 10.4943097,29.7030925 L-9.2863011e-14,29.7029703 L-9.2863011e-14,-1.89947068e-14 L19.6039604,-1.89947068e-14 Z" id="path-1"></path>
        <linearGradient x1="50%" y1="0%" x2="50%" y2="100%" id="linearGradient-3">
            <stop stop-color="#96CAFF" offset="0%"></stop>
            <stop stop-color="#0052FE" offset="100%"></stop>
        </linearGradient>
        <path d="M9.27166856,0.0514144847 C9.37479646,2.79186321 7.30051973,6.78438333 3.04883838,12.0289749 C-4.01775269,21.1154857 2.4724043,29.6590874 9.61050571,29.6590874 C16.7486071,29.6590874 23.2544523,22.0897152 17.1575863,13.0019654 C15.58037,10.4186008 12.1304213,6.46851784 11.6753794,5.04456769 C10.0707305,8.13538641 10.7135624,11.1621669 9.61050571,13.6885297 C8.63346914,16.2618916 12.8363685,19.9823582 9.78880566,19.7757327 C7.4619385,19.4135101 7.55555101,16.5092708 7.75115769,15.8276474 C9.97603105,8.12288288 10.482868,2.86413857 9.27166856,0.0514144847 Z" id="path-4"></path>
        <linearGradient x1="51.8846576%" y1="13.0142653%" x2="51.1659668%" y2="86.1927684%" id="linearGradient-6">
            <stop stop-color="#96CAFF" offset="0%"></stop>
            <stop stop-color="#0300CC" offset="100%"></stop>
        </linearGradient>
        <linearGradient x1="50%" y1="31.835801%" x2="50%" y2="100%" id="linearGradient-7">
            <stop stop-color="#7FA9FF" offset="0%"></stop>
            <stop stop-color="#021580" offset="100%"></stop>
        </linearGradient>
        <linearGradient x1="50%" y1="0%" x2="50%" y2="100%" id="linearGradient-8">
            <stop stop-color="#96CAFF" offset="0%"></stop>
            <stop stop-color="#0022E6" offset="100%"></stop>
        </linearGradient>
    </defs>
    <g id="页面-1" stroke="none" stroke-width="1" fill="none" fill-rule="evenodd">
        <g id="HFIL">
            <text font-family="Roboto-Bold, Roboto" font-size="24" font-weight="bold" fill="#FFFFFF">
                <tspan x="34" y="22">HFIL</tspan>
            </text>
            <g id="编组-10备份-6">
                <g id="路径-21-+-路径-20-蒙版">
                    <mask id="mask-2" fill="white">
                        <use xlink:href="#path-1"></use>
                    </mask>
                    <g id="蒙版"></g>
                    <g mask="url(#mask-2)">
                        <mask id="mask-5" fill="white">
                            <use xlink:href="#path-4"></use>
                        </mask>
                        <use id="蒙版" fill="url(#linearGradient-3)" xlink:href="#path-4"></use>
                        <path d="M5.55522385,14.8420089 C2.96187311,20.5380706 5.55522385,28.0509054 9.61050571,29.6590874 C13.6657876,31.2672695 25.9621051,24.6817537 17.1575863,13.0019654 C15.58037,10.4186008 12.1304213,6.46851784 11.6753794,5.04456769 C11.0462511,5.76100625 10.1304895,9.33942987 11.1400251,13.0019654 C12.1495607,16.6645008 12.8363685,19.9823582 9.78880566,19.7757327 C7.4619385,19.4135101 7.55555101,16.5092708 7.75115769,15.8276474 C11.0884677,4.27050061 11.9327459,6.97512165 5.55522385,14.8420089 Z" id="蒙版" fill="url(#linearGradient-6)" mask="url(#mask-5)"></path>
                        <path d="M11.9805566,4.39332013 C11.1095603,5.8925558 11.28057,8.28150395 12.4935856,11.5601646 C14.313109,16.4781555 17.6769979,22.7035883 11.9805566,25.081264 C8.45067444,26.30842 4.62534087,22.2889 7.20707326,13.2214721 C8.9282282,7.17652014 10.5193893,4.23380282 11.9805566,4.39332013 Z" id="路径-21" fill="url(#linearGradient-7)" mask="url(#mask-5)"></path>
                        <path d="M9.21269322,-0.29415328 C9.35637428,4.13327697 8.33926358,8.23620499 6.16136112,12.0146308 C2.89450743,17.6822694 -1.03744209,26.5356531 7.10251328,29.3226647 C12.5291502,31.1806724 15.2787446,30.7149743 15.3512964,27.9255704 C11.4188228,29.7436785 8.66922839,28.58067 7.10251328,24.4365448 C6.20606024,22.3635901 7.44584668,16.4212041 7.75115769,15.8276474 C7.95469836,15.431943 9.05403758,11.1848082 11.0491753,3.08624322 L9.21269322,-0.29415328 Z" id="路径-20" fill="url(#linearGradient-8)" mask="url(#mask-5)"></path>
                    </g>
                </g>
                <g id="4090271258_24349616025_FIL-08" transform="translate(8.020000, 12.770000)" fill-rule="nonzero">
                    <path d="M17.2102087,8.62602337 C17.2180181,13.3044836 13.3998597,17.2570791 8.51938428,17.212746 C3.73260751,17.167694 -0.105201252,13.2165363 0.00239638387,8.4014822 C0.105201252,3.78724506 3.91473268,-0.0910625869 8.78442434,0.00167746871 C13.4760647,0.0910625869 17.2323964,3.94013435 17.2102087,8.62602337 Z" id="路径" fill="#3E79FE"></path>
                    <path d="M9.47769819,6.91117107 L11.4770013,7.20257135 C11.5913088,7.2191064 11.7056163,7.23803783 11.8204031,7.25049903 C11.8822298,7.2572089 11.8901378,7.28021419 11.8738424,7.33652921 C11.8259147,7.50116078 11.7806231,7.66651127 11.7437188,7.83377886 C11.7252666,7.91789193 11.6835695,7.92963421 11.609042,7.91813157 C11.1165851,7.84072837 10.6241282,7.76620083 10.1314317,7.69071474 C9.91072476,7.65692573 9.68977816,7.62457455 9.46931085,7.58958734 C9.40892197,7.58000181 9.37800862,7.58838915 9.36506815,7.66147886 C9.29317663,8.06886412 9.21361669,8.47624937 9.13405675,8.88363463 C9.11895953,8.96127747 9.14579903,8.98907552 9.22152476,8.99937997 C9.9840541,9.10314339 10.7458645,9.21026175 11.5083939,9.31426481 C11.5920277,9.32576745 11.6394761,9.33822865 11.6025718,9.44462809 C11.5505702,9.59488136 11.5167812,9.75160487 11.4777202,9.90617163 C11.4614248,9.97063435 11.445369,10.002027 11.3593388,9.99004506 C10.5984869,9.87717538 9.83595758,9.77437051 9.07486606,9.66198011 C8.99219082,9.64975855 8.97565577,9.67635841 8.95504687,9.74489499 C8.82779889,10.1836729 8.75662629,10.6389858 8.60541446,11.072252 C8.35954548,11.7715168 8.1218242,12.4748555 7.80669972,13.1468015 C7.35258498,14.1149406 6.58454395,14.6129092 5.51240181,14.6186868 C5.14815146,14.6205776 4.81121989,14.5177727 4.52676912,14.2776551 C4.27538846,14.0658147 4.24399583,13.7880739 4.43402907,13.5239924 C4.49274047,13.4427549 4.56487163,13.4027353 4.6676765,13.4092056 C4.85459444,13.4207082 5.01994492,13.4671981 5.12586509,13.6394981 C5.18002337,13.727685 5.24568428,13.8094017 5.29744618,13.8987868 C5.52893686,14.2953883 5.94782476,14.3749483 6.29937427,14.0785156 C6.56705035,13.8522969 6.74390348,13.5587399 6.87905953,13.2397812 C7.05687121,12.8187366 7.13667079,12.3694146 7.24978011,11.9299178 C7.43933408,11.1927901 7.61954214,10.4535057 7.77434854,9.70799068 C7.77746384,9.69241419 7.7834548,9.67731697 7.78585118,9.66150083 C7.81388887,9.49375396 7.80238623,9.47602072 7.63248261,9.45013978 C6.9519096,9.34613672 6.26917983,9.24165438 5.58597079,9.14244409 C5.48316592,9.12734687 5.44602197,9.09331822 5.4661516,8.98619986 C5.49490821,8.84241683 5.51264145,8.69479958 5.52821794,8.54838053 C5.53612601,8.47529082 5.54954576,8.45060807 5.63629485,8.46378818 C6.3813306,8.57593894 7.12756453,8.67946273 7.87307955,8.78921711 C7.94041794,8.79904228 7.96893491,8.79329096 7.98499068,8.7161274 C8.06718665,8.32623574 8.15273755,7.937063 8.24859291,7.55052629 C8.27255675,7.45275382 8.23996592,7.43717733 8.16064562,7.42519541 C7.73504784,7.36049305 7.30992935,7.29315466 6.88481085,7.22605591 C6.53829374,7.17141836 6.19225591,7.11462406 5.84549917,7.06214325 C5.78870487,7.05351627 5.75946898,7.04345146 5.76977344,6.97491488 C5.79709221,6.78967441 5.81937858,6.60347538 5.83902893,6.41703672 C5.84549917,6.35664784 5.86467024,6.33532003 5.92817441,6.3451452 C6.70604061,6.45298248 7.48438609,6.55770445 8.26225229,6.66578136 C8.45012879,6.69190195 8.44653421,6.69549652 8.50476634,6.5112146 C8.70294729,5.88479986 8.8503249,5.24113115 9.10721725,4.63436676 C9.38543741,3.97703866 9.76406606,3.38585076 10.3595675,2.97487093 C10.993411,2.53729124 11.6854866,2.46180515 12.4053604,2.75440362 C12.5862873,2.8279726 12.7238398,2.96624395 12.8424608,3.11865396 C13.0118851,3.3367249 12.8695399,3.80114409 12.6181592,3.85961586 C12.4774915,3.89244631 12.3576723,3.83996551 12.2524711,3.7544146 C12.0847242,3.61734145 11.9572366,3.44072796 11.8182463,3.27705494 C11.5359523,2.94443686 11.1731398,2.91927483 10.8666423,3.23032545 C10.5742834,3.52699777 10.3485441,3.86608609 10.2320798,4.2713146 C9.98525229,5.12922003 9.73762596,5.98688581 9.48920083,6.84431196 C9.48704409,6.86228484 9.48392879,6.88217483 9.47769819,6.91117107 Z" id="路径" fill="#FEFEFE"></path>
                </g>
            </g>
        </g>
    </g>
</svg>