<?xml version="1.0" encoding="UTF-8"?>
<svg width="95px" height="31px" viewBox="0 0 95 31" version="1.1" xmlns="http://www.w3.org/2000/svg" xmlns:xlink="http://www.w3.org/1999/xlink">
    <title>HLTC@2x</title>
    <defs>
        <path d="M19.6039604,-1.89947068e-14 L19.6037622,11.0748169 C18.7056859,10.8260184 17.759458,10.6930693 16.7821782,10.6930693 C10.9585816,10.6930693 6.23762376,15.4140271 6.23762376,21.2376238 C6.23762376,24.7048363 7.91105738,27.7811975 10.4943097,29.7030925 L-9.2863011e-14,29.7029703 L-9.2863011e-14,-1.89947068e-14 L19.6039604,-1.89947068e-14 Z" id="path-1"></path>
        <linearGradient x1="50%" y1="0%" x2="50%" y2="100%" id="linearGradient-3">
            <stop stop-color="#96CAFF" offset="0%"></stop>
            <stop stop-color="#0052FE" offset="100%"></stop>
        </linearGradient>
        <path d="M9.27166856,0.0514144847 C9.37479646,2.79186321 7.30051973,6.78438333 3.04883838,12.0289749 C-4.01775269,21.1154857 2.4724043,29.6590874 9.61050571,29.6590874 C16.7486071,29.6590874 23.2544523,22.0897152 17.1575863,13.0019654 C15.58037,10.4186008 12.1304213,6.46851784 11.6753794,5.04456769 C10.0707305,8.13538641 10.7135624,11.1621669 9.61050571,13.6885297 C8.63346914,16.2618916 12.8363685,19.9823582 9.78880566,19.7757327 C7.4619385,19.4135101 7.55555101,16.5092708 7.75115769,15.8276474 C9.97603105,8.12288288 10.482868,2.86413857 9.27166856,0.0514144847 Z" id="path-4"></path>
        <linearGradient x1="51.8846576%" y1="13.0142653%" x2="51.1659668%" y2="86.1927684%" id="linearGradient-6">
            <stop stop-color="#96CAFF" offset="0%"></stop>
            <stop stop-color="#0300CC" offset="100%"></stop>
        </linearGradient>
        <linearGradient x1="50%" y1="31.835801%" x2="50%" y2="100%" id="linearGradient-7">
            <stop stop-color="#7FA9FF" offset="0%"></stop>
            <stop stop-color="#021580" offset="100%"></stop>
        </linearGradient>
        <linearGradient x1="50%" y1="0%" x2="50%" y2="100%" id="linearGradient-8">
            <stop stop-color="#96CAFF" offset="0%"></stop>
            <stop stop-color="#0022E6" offset="100%"></stop>
        </linearGradient>
    </defs>
    <g id="页面-1" stroke="none" stroke-width="1" fill="none" fill-rule="evenodd">
        <g id="HLTC">
            <text font-family="Roboto-Bold, Roboto" font-size="24" font-weight="bold" fill="#FFFFFF">
                <tspan x="34" y="22">HLTC</tspan>
            </text>
            <g id="编组-10备份-6">
                <g id="路径-21-+-路径-20-蒙版">
                    <mask id="mask-2" fill="white">
                        <use xlink:href="#path-1"></use>
                    </mask>
                    <g id="蒙版"></g>
                    <g mask="url(#mask-2)">
                        <mask id="mask-5" fill="white">
                            <use xlink:href="#path-4"></use>
                        </mask>
                        <use id="蒙版" fill="url(#linearGradient-3)" xlink:href="#path-4"></use>
                        <path d="M5.55522385,14.8420089 C2.96187311,20.5380706 5.55522385,28.0509054 9.61050571,29.6590874 C13.6657876,31.2672695 25.9621051,24.6817537 17.1575863,13.0019654 C15.58037,10.4186008 12.1304213,6.46851784 11.6753794,5.04456769 C11.0462511,5.76100625 10.1304895,9.33942987 11.1400251,13.0019654 C12.1495607,16.6645008 12.8363685,19.9823582 9.78880566,19.7757327 C7.4619385,19.4135101 7.55555101,16.5092708 7.75115769,15.8276474 C11.0884677,4.27050061 11.9327459,6.97512165 5.55522385,14.8420089 Z" id="蒙版" fill="url(#linearGradient-6)" mask="url(#mask-5)"></path>
                        <path d="M11.9805566,4.39332013 C11.1095603,5.8925558 11.28057,8.28150395 12.4935856,11.5601646 C14.313109,16.4781555 17.6769979,22.7035883 11.9805566,25.081264 C8.45067444,26.30842 4.62534087,22.2889 7.20707326,13.2214721 C8.9282282,7.17652014 10.5193893,4.23380282 11.9805566,4.39332013 Z" id="路径-21" fill="url(#linearGradient-7)" mask="url(#mask-5)"></path>
                        <path d="M9.21269322,-0.29415328 C9.35637428,4.13327697 8.33926358,8.23620499 6.16136112,12.0146308 C2.89450743,17.6822694 -1.03744209,26.5356531 7.10251328,29.3226647 C12.5291502,31.1806724 15.2787446,30.7149743 15.3512964,27.9255704 C11.4188228,29.7436785 8.66922839,28.58067 7.10251328,24.4365448 C6.20606024,22.3635901 7.44584668,16.4212041 7.75115769,15.8276474 C7.95469836,15.431943 9.05403758,11.1848082 11.0491753,3.08624322 L9.21269322,-0.29415328 Z" id="路径-20" fill="url(#linearGradient-8)" mask="url(#mask-5)"></path>
                    </g>
                </g>
                <g id="蒙版备份-+-形状-蒙版" transform="translate(8.019802, 12.772277)" fill-rule="nonzero">
                    <path d="M8.61199644,0 C13.3697007,0 17.2277228,3.85683641 17.2277228,8.61386139 C17.2277228,13.371226 13.371226,17.2277228 8.61386139,17.2277228 C3.8564968,17.2277228 0,13.371226 0,8.61386139 C0,3.85679323 3.85620042,0 8.61199644,0 Z" id="Combined-Shape-Copy-3" fill="#838687"></path>
                    <polygon id="Path" fill="#FFFFFF" points="8.2859915 10.6017002 8.81536449 8.64023205 10.0689951 8.18961943 10.3808106 7.03689821 10.3702384 7.00832766 9.13622362 7.45179765 10.0253053 4.15841584 7.50377796 4.15841584 6.34109351 8.45640316 5.3702367 8.80538985 5.04950495 9.99369895 6.0195975 9.64508818 5.33431679 12.1782178 12.0451001 12.1782178 12.4752475 10.6017002"></polygon>
                </g>
            </g>
        </g>
    </g>
</svg>