<?xml version="1.0" encoding="UTF-8"?>
<svg width="96px" height="30px" viewBox="0 0 96 30" version="1.1" xmlns="http://www.w3.org/2000/svg" xmlns:xlink="http://www.w3.org/1999/xlink">
    <title>HXZT@2x</title>
    <defs>
        <path d="M19.6039604,-1.89947068e-14 L19.6037622,11.0748169 C18.7056859,10.8260184 17.759458,10.6930693 16.7821782,10.6930693 C10.9585816,10.6930693 6.23762376,15.4140271 6.23762376,21.2376238 C6.23762376,24.7048363 7.91105738,27.7811975 10.4943097,29.7030925 L-9.2863011e-14,29.7029703 L-9.2863011e-14,-1.89947068e-14 L19.6039604,-1.89947068e-14 Z" id="path-1"></path>
        <linearGradient x1="50%" y1="0%" x2="50%" y2="100%" id="linearGradient-3">
            <stop stop-color="#96CAFF" offset="0%"></stop>
            <stop stop-color="#0052FE" offset="100%"></stop>
        </linearGradient>
        <path d="M9.27166856,0.0514144847 C9.37479646,2.79186321 7.30051973,6.78438333 3.04883838,12.0289749 C-4.01775269,21.1154857 2.4724043,29.6590874 9.61050571,29.6590874 C16.7486071,29.6590874 23.2544523,22.0897152 17.1575863,13.0019654 C15.58037,10.4186008 12.1304213,6.46851784 11.6753794,5.04456769 C10.0707305,8.13538641 10.7135624,11.1621669 9.61050571,13.6885297 C8.63346914,16.2618916 12.8363685,19.9823582 9.78880566,19.7757327 C7.4619385,19.4135101 7.55555101,16.5092708 7.75115769,15.8276474 C9.97603105,8.12288288 10.482868,2.86413857 9.27166856,0.0514144847 Z" id="path-4"></path>
        <linearGradient x1="51.8846576%" y1="13.0142653%" x2="51.1659668%" y2="86.1927684%" id="linearGradient-6">
            <stop stop-color="#96CAFF" offset="0%"></stop>
            <stop stop-color="#0300CC" offset="100%"></stop>
        </linearGradient>
        <linearGradient x1="50%" y1="31.835801%" x2="50%" y2="100%" id="linearGradient-7">
            <stop stop-color="#7FA9FF" offset="0%"></stop>
            <stop stop-color="#021580" offset="100%"></stop>
        </linearGradient>
        <linearGradient x1="50%" y1="0%" x2="50%" y2="100%" id="linearGradient-8">
            <stop stop-color="#96CAFF" offset="0%"></stop>
            <stop stop-color="#0022E6" offset="100%"></stop>
        </linearGradient>
    </defs>
    <g id="页面-1" stroke="none" stroke-width="1" fill="none" fill-rule="evenodd">
        <g id="HXZT">
            <text font-family="Roboto-Bold, Roboto" font-size="24" font-weight="bold" fill="#FFFFFF">
                <tspan x="34" y="22">HXZT</tspan>
            </text>
            <g id="编组-10备份-6" transform="translate(-0.000000, 0.000000)">
                <g id="路径-21-+-路径-20-蒙版">
                    <mask id="mask-2" fill="white">
                        <use xlink:href="#path-1"></use>
                    </mask>
                    <g id="蒙版"></g>
                    <g mask="url(#mask-2)">
                        <mask id="mask-5" fill="white">
                            <use xlink:href="#path-4"></use>
                        </mask>
                        <use id="蒙版" fill="url(#linearGradient-3)" xlink:href="#path-4"></use>
                        <path d="M5.55522385,14.8420089 C2.96187311,20.5380706 5.55522385,28.0509054 9.61050571,29.6590874 C13.6657876,31.2672695 25.9621051,24.6817537 17.1575863,13.0019654 C15.58037,10.4186008 12.1304213,6.46851784 11.6753794,5.04456769 C11.0462511,5.76100625 10.1304895,9.33942987 11.1400251,13.0019654 C12.1495607,16.6645008 12.8363685,19.9823582 9.78880566,19.7757327 C7.4619385,19.4135101 7.55555101,16.5092708 7.75115769,15.8276474 C11.0884677,4.27050061 11.9327459,6.97512165 5.55522385,14.8420089 Z" id="蒙版" fill="url(#linearGradient-6)" mask="url(#mask-5)"></path>
                        <path d="M11.9805566,4.39332013 C11.1095603,5.8925558 11.28057,8.28150395 12.4935856,11.5601646 C14.313109,16.4781555 17.6769979,22.7035883 11.9805566,25.081264 C8.45067444,26.30842 4.62534087,22.2889 7.20707326,13.2214721 C8.9282282,7.17652014 10.5193893,4.23380282 11.9805566,4.39332013 Z" id="路径-21" fill="url(#linearGradient-7)" mask="url(#mask-5)"></path>
                        <path d="M9.21269322,-0.29415328 C9.35637428,4.13327697 8.33926358,8.23620499 6.16136112,12.0146308 C2.89450743,17.6822694 -1.03744209,26.5356531 7.10251328,29.3226647 C12.5291502,31.1806724 15.2787446,30.7149743 15.3512964,27.9255704 C11.4188228,29.7436785 8.66922839,28.58067 7.10251328,24.4365448 C6.20606024,22.3635901 7.44584668,16.4212041 7.75115769,15.8276474 C7.95469836,15.431943 9.05403758,11.1848082 11.0491753,3.08624322 L9.21269322,-0.29415328 Z" id="路径-20" fill="url(#linearGradient-8)" mask="url(#mask-5)"></path>
                    </g>
                </g>
                <g id="编组-72" transform="translate(8.019802, 12.772277)">
                    <circle id="椭圆形" fill="#007BFF" cx="8.61386139" cy="8.61386139" r="8.61386139"></circle>
                    <path d="M7.81989585,6.2525142 L7.81989585,9.10124429 C7.81989585,9.22404116 7.82678544,9.34447656 7.84056461,9.46255048 C7.85434378,9.5806244 7.88190212,9.68689093 7.92323963,9.78135006 C7.96457715,9.8758092 8.02428689,9.9513765 8.10236886,10.008052 C8.18045082,10.0647275 8.28838766,10.0930652 8.42617937,10.0930652 C8.70176279,10.0930652 8.93141564,10.0316668 9.11513792,9.90886989 C9.25292963,9.81677224 9.39072134,9.70607794 9.52851305,9.576787 L9.66630476,9.44129717 L9.7903173,9.58298588 C9.7903173,9.83277346 9.64645852,10.1425846 9.45880562,10.3815086 C9.27115272,10.6204326 8.87389562,10.8045291 8.30878519,10.8045291 C7.74367476,10.8045291 7.53713974,10.710928 7.18653841,10.4129096 C6.93514484,10.1992198 6.78572944,9.83807973 6.75230361,9.65138105 L6.74512051,9.58298588 L6.74512051,6.2525142 L5.34653465,6.2525142 L5.34653465,5.82744809 C5.41570069,5.82522552 5.5631553,5.82378739 5.78889849,5.82313369 L6.51635766,5.82313369 C6.58892184,5.82326685 6.66473462,5.82343256 6.743796,5.82363082 L6.74512051,4.43732448 L6.53027763,4.17281795 L6.53027763,3.86138614 L7.56842598,3.86138614 L7.81989585,4.08099069 L7.81989585,5.82744809 L9.70764228,5.82744809 L9.70764228,5.82272513 L11.7954079,5.82272513 L12.099616,6.2525142 L9.85484138,8.57664178 C10.105213,8.54828797 10.4879232,8.55500785 10.8671285,8.71014111 C11.2635035,8.87229852 11.5587598,9.21291377 11.7023538,9.39300799 C11.8459479,9.5731022 11.961157,9.79634399 12.0479814,10.0627334 C12.1348057,10.3291227 12.1782178,10.6424116 12.1782178,11.0026 C12.1782178,11.3177649 12.1264572,11.617922 12.0229359,11.9030711 C11.9194146,12.1882203 11.7691417,12.4396018 11.5721174,12.6572157 C11.375093,12.8748295 11.131317,13.0474198 10.8407895,13.1749865 C10.550262,13.3025533 10.2179921,13.3663366 9.84397966,13.3663366 C9.64361587,13.3663366 9.43657328,13.3381969 9.2228519,13.2819175 C9.00913053,13.225638 8.81377583,13.1374669 8.63678782,13.0174041 C8.4597998,12.8973413 8.31453605,12.7435108 8.20099657,12.5559127 C8.08745709,12.3683145 8.03068735,12.1431967 8.03068735,11.8805593 C8.03068735,11.7004651 8.06909041,11.5447587 8.14589653,11.41344 C8.22270265,11.2821213 8.36947419,11.2084144 8.54312281,11.2084144 C8.73680781,11.2084144 8.85426303,11.2981752 8.92835738,11.41344 C9.00245173,11.5287048 9.00245173,11.7267289 9.00245173,11.914327 C9.00245173,11.9818623 8.99410324,12.0493977 8.97740626,12.116933 C8.96070928,12.1844683 8.95236079,12.2520037 8.95236079,12.319539 C8.95236079,12.4471057 8.98742445,12.5559127 9.05755178,12.6459598 C9.1276791,12.7360069 9.21450341,12.8091702 9.31802471,12.8654496 C9.421546,12.921729 9.53007638,12.9630006 9.64361587,12.9892644 C9.75715535,13.0155281 9.86067664,13.02866 9.95417974,13.02866 C10.2213315,13.02866 10.4417316,12.9648766 10.6153803,12.8373099 C10.7890289,12.7097431 10.9259441,12.5446568 11.026126,12.3420508 C11.1263079,12.1394448 11.1964352,11.9105751 11.236508,11.6554416 C11.2765808,11.4003081 11.2966171,11.1451746 11.2966171,10.8900412 C11.2966171,10.7174509 11.2749111,10.5354807 11.2314989,10.3441306 C11.1880868,10.1527805 11.1464325,9.97845209 11.026126,9.75531147 C10.9058196,9.53217085 10.6153803,9.24002166 10.410089,9.14163794 C10.2341251,9.05730903 9.78765181,9.00313188 9.55012016,8.98937369 L9.45953465,8.98538614 L9.01193207,9.45143063 L8.63695174,9.32350601 L10.817942,6.2525142 L7.81989585,6.2525142 Z" id="形状结合" fill="#FFFFFF" fill-rule="nonzero"></path>
                </g>
            </g>
        </g>
    </g>
</svg>