<svg width="105" height="24" viewBox="0 0 105 24" fill="none" xmlns="http://www.w3.org/2000/svg">
    <path d="M7.93946 18.0769V22.7169C7.93946 22.7986 7.90699 22.877 7.84919 22.9348C7.79139 22.9926 7.713 23.0251 7.63126 23.0251H1.00494C0.9232 23.0251 0.844808 22.9926 0.787009 22.9348C0.72921 22.877 0.696739 22.7986 0.696739 22.7169V18.0615L7.93946 18.0769Z" fill="#1B1626"/>
    <path d="M18.338 1.27988V6.28198H16.7646C16.8649 6.09024 16.9051 5.87279 16.8802 5.65787C16.8756 5.61799 16.8689 5.57838 16.8602 5.53922C16.8538 5.50677 16.845 5.47484 16.834 5.44367C16.8263 5.41794 16.8171 5.39272 16.8062 5.36817L16.7908 5.32964C16.78 5.30498 16.7677 5.28033 16.7554 5.25721C16.7384 5.22568 16.7193 5.19531 16.6983 5.16629C16.6796 5.13871 16.659 5.11245 16.6367 5.0877C16.6184 5.06507 16.5988 5.04346 16.5781 5.02298C16.5481 4.99275 16.5162 4.96444 16.4826 4.93822L16.404 4.87658C16.2926 4.78712 16.1645 4.72068 16.0272 4.68113C15.8899 4.64158 15.7461 4.6297 15.6042 4.64619C15.4622 4.66268 15.325 4.7072 15.2004 4.77717C15.0758 4.84715 14.9664 4.94118 14.8784 5.0538L13.8953 6.29431H11.0953V1.27988C11.0953 1.19814 11.1277 1.11975 11.1855 1.06195C11.2433 1.00415 11.3217 0.97168 11.4035 0.97168H18.0298C18.1115 0.97168 18.1899 1.00415 18.2477 1.06195C18.3055 1.11975 18.338 1.19814 18.338 1.27988Z" fill="#6840DD"/>
    <path d="M18.3381 12.4124V22.7201C18.3381 22.8019 18.3056 22.8803 18.2478 22.9381C18.19 22.9959 18.1116 23.0283 18.0299 23.0283H11.4035C11.3218 23.0283 11.2434 22.9959 11.1856 22.9381C11.1278 22.8803 11.0953 22.8019 11.0953 22.7201V17.6256H8.40936H7.94706L0.704339 17.6071H0.616502C0.56436 17.6074 0.51245 17.6001 0.462401 17.5855C0.377577 17.565 0.298529 17.5255 0.23125 17.4699C0.212705 17.4558 0.195195 17.4404 0.178856 17.4237C0.12066 17.3643 0.0748777 17.294 0.0441855 17.2167C0.0134932 17.1395 -0.00149395 17.0569 9.97206e-05 16.9737V16.8736C2.94002e-05 16.7915 0.0163502 16.7102 0.0481048 16.6346C0.0798593 16.5589 0.126408 16.4903 0.18502 16.4328C0.200336 16.4172 0.216821 16.4028 0.234332 16.3897C0.300232 16.3335 0.378317 16.2934 0.462401 16.2726C0.512482 16.2581 0.564371 16.2508 0.616502 16.251V15.7887C0.564319 15.7881 0.512468 15.7803 0.462401 15.7656C0.377381 15.744 0.298354 15.7034 0.23125 15.6469L0.186561 15.6115C0.126545 15.5531 0.0790584 15.4831 0.047 15.4057C0.0149416 15.3283 -0.00101647 15.2453 9.97206e-05 15.1615V15.0614C9.33454e-05 14.9798 0.0162887 14.899 0.0477465 14.8237C0.0792043 14.7484 0.125298 14.6801 0.183355 14.6227C0.241412 14.5654 0.310276 14.5202 0.385953 14.4896C0.46163 14.4591 0.542614 14.4439 0.624207 14.445H0.793717V13.9826C0.759372 13.9858 0.724815 13.9858 0.69047 13.9826C0.610347 13.9686 0.533213 13.941 0.462401 13.901C0.378936 13.8632 0.302776 13.8111 0.237414 13.7469C0.134897 13.6419 0.0636244 13.5104 0.0315755 13.3672C-0.000473315 13.224 0.00796649 13.0747 0.0559502 12.9361C0.103934 12.7974 0.189567 12.6748 0.303264 12.5821C0.416962 12.4893 0.554234 12.43 0.699716 12.4108C0.734606 12.4085 0.769614 12.4085 0.804504 12.4108H3.50897L3.02663 11.8206C2.9244 11.6905 2.87786 11.5252 2.89721 11.3609C2.91656 11.1966 3.00022 11.0466 3.12988 10.9438L3.21001 10.8821C3.3403 10.7801 3.50573 10.7338 3.67007 10.7534C3.83441 10.7731 3.98427 10.857 4.08684 10.9869L5.20407 12.4047H7.93935H8.40166L11.0953 12.4201V12.4124H18.3381Z" fill="#6840DD"/>
    <path d="M19.3876 9.4133V9.51347C19.3879 9.65983 19.3369 9.80166 19.2434 9.91428C19.1499 10.0269 19.0199 10.1032 18.876 10.1299C18.8385 10.1373 18.8003 10.141 18.762 10.1407V10.603C18.8003 10.6027 18.8385 10.6063 18.876 10.6137C19.0207 10.6387 19.1518 10.7145 19.2456 10.8275C19.3394 10.9405 19.3898 11.0833 19.3876 11.2301V11.3303C19.3879 11.4767 19.3369 11.6185 19.2434 11.7311C19.1499 11.8438 19.0199 11.92 18.876 11.9467C18.8385 11.9542 18.8003 11.9578 18.762 11.9575H8.02272H5.51242L4.53235 10.7139C4.35491 10.4883 4.09548 10.3419 3.81058 10.3066C3.52568 10.2714 3.23842 10.3502 3.01137 10.5259L2.93278 10.5891C2.7344 10.7458 2.59681 10.9668 2.54366 11.214C2.49051 11.4612 2.52512 11.7192 2.64153 11.9436H0.892493C0.85705 11.9436 0.821607 11.9436 0.787704 11.9436V1.27988C0.787704 1.19814 0.820176 1.11975 0.877974 1.06195C0.935773 1.00415 1.01417 0.97168 1.09591 0.97168H7.72222C7.80396 0.97168 7.88236 1.00415 7.94016 1.06195C7.99795 1.11975 8.03042 1.19814 8.03042 1.27988V6.74428H14.1944L15.3163 5.3281C15.3666 5.26297 15.4293 5.20857 15.5009 5.16808C15.5726 5.1276 15.6516 5.10186 15.7333 5.09238C15.815 5.0829 15.8978 5.08988 15.9767 5.11289C16.0557 5.13591 16.1293 5.1745 16.1931 5.22639L16.2717 5.28803C16.4011 5.39029 16.4847 5.53958 16.5043 5.7033C16.5239 5.86701 16.478 6.03184 16.3765 6.16178L15.8911 6.74428H18.5956C18.612 6.74275 18.6285 6.74275 18.6449 6.74428C18.724 6.74735 18.8021 6.76349 18.876 6.79205C19.0262 6.84911 19.1555 6.95048 19.2467 7.08273C19.338 7.21498 19.3868 7.37184 19.3868 7.53251C19.3868 7.69317 19.338 7.85003 19.2467 7.98228C19.1555 8.11453 19.0262 8.21591 18.876 8.27296C18.8021 8.30152 18.724 8.31766 18.6449 8.32073C18.6285 8.32226 18.612 8.32226 18.5956 8.32073V8.78303H18.762C18.8003 8.78273 18.8385 8.78634 18.876 8.79382C19.0204 8.82059 19.1509 8.89733 19.2444 9.01059C19.3379 9.12385 19.3886 9.26641 19.3876 9.4133Z" fill="#1B1626"/>
    <path d="M31.3122 19.3731V13.8193H27.6501V19.3731H24.2031V5.34863H27.6501V10.746H31.3122V5.34863H34.7553V19.3731H31.3122Z" fill="#1B1626"/>
    <path d="M43.206 19.3735V18.5069C42.5405 19.1348 41.6601 19.4847 40.745 19.485C40.3072 19.5015 39.8704 19.4298 39.4608 19.2742C39.0511 19.1186 38.6769 18.8823 38.3603 18.5792C37.4546 17.6735 37.2981 16.668 37.2981 15.547V8.77637H40.5279V15.1186C40.5279 16.3393 41.3945 16.576 41.8269 16.576C42.2592 16.576 43.1278 16.3393 43.1278 15.1186V8.77637H46.3576V19.3735H43.206Z" fill="#1B1626"/>
    <path d="M52.6195 22.9182C50.9645 22.9182 49.7223 22.6228 48.6405 21.5488L50.6496 19.5397C51.1406 20.0327 51.7314 20.2107 52.4611 20.2107C53.8207 20.2107 54.1748 19.2835 54.1748 18.5948V17.826C53.5879 18.4129 52.8739 18.7142 51.8898 18.7142C51.4337 18.7306 50.979 18.6553 50.5525 18.4927C50.1261 18.33 49.7366 18.0834 49.4073 17.7673C48.4429 16.8029 48.4292 15.6154 48.4292 13.6905C48.4292 11.7655 48.4488 10.578 49.4073 9.6136C49.7406 9.29755 50.1335 9.05104 50.5631 8.88848C50.9927 8.72591 51.4504 8.65054 51.9094 8.66677C52.3511 8.64483 52.7922 8.72118 53.2009 8.89033C53.6096 9.05947 53.9756 9.31719 54.2726 9.6449V8.77632H57.4026V18.6046C57.4046 21.1067 55.5148 22.9182 52.6195 22.9182ZM52.9149 11.5718C51.7314 11.5718 51.6531 12.595 51.6531 13.6787C51.6531 14.7625 51.7314 15.7856 52.9149 15.7856C54.0985 15.7856 54.1748 14.7625 54.1748 13.6787C54.1748 12.595 54.0965 11.5738 52.9149 11.5738V11.5718Z" fill="#1B1626"/>
    <path d="M63.4303 19.4901C61.8339 19.4901 60.2787 19.4118 58.8213 17.9544L60.9086 15.8671C61.7948 16.7533 62.9373 16.7533 63.489 16.7533C63.9624 16.7533 64.8681 16.6144 64.8681 16.0627C64.8681 15.7673 64.7292 15.4523 64.0993 15.3937L62.4639 15.2352C60.6328 15.0591 59.3925 14.2316 59.3925 12.1638C59.3925 9.81632 61.4994 8.65625 63.6063 8.65625C65.3396 8.65625 66.7364 8.91252 67.783 9.95717L65.7934 11.9467C65.2613 11.4146 64.3751 11.3168 63.5476 11.3168C62.7651 11.3168 62.505 11.6904 62.505 11.9271C62.505 12.0445 62.4639 12.4397 63.1936 12.514L64.829 12.6725C67.0533 12.8916 68.0119 14.2121 68.0119 15.9062C68.0119 18.4063 65.8913 19.4901 63.4303 19.4901Z" fill="#1B1626"/>
    <path d="M80.7274 19.3735H78.1412L76.2279 13.5634L74.3186 19.3735H71.7402L68.5476 8.77637H71.9554L73.2759 14.2715L75.107 8.77637H77.3528L79.1839 14.2715L80.5043 8.77637H83.9122L80.7274 19.3735Z" fill="#1B1626"/>
    <path d="M90.2701 19.3727V18.5061C89.6206 19.1555 89.0298 19.4705 87.9069 19.4705C86.8427 19.4705 85.9507 19.1164 85.3638 18.5256C84.7769 17.9348 84.4443 17.0291 84.4443 16.0431C84.4443 14.4488 85.5281 12.9698 88.0497 12.9698H90.2016V12.6959C90.2016 11.7295 89.7282 11.3755 88.6053 11.3755C87.7798 11.3755 87.4316 11.5711 86.9132 12.0836L84.8943 10.0843C85.9761 9.00249 86.9621 8.66602 88.754 8.66602C91.7882 8.66602 93.4217 9.92781 93.4217 12.5081V19.3825L90.2701 19.3727ZM90.1919 15.1178H88.5525C87.9226 15.1178 87.5294 15.4719 87.5294 15.9649C87.5294 16.4578 87.8835 16.8511 88.5916 16.8511C89.2235 16.8511 89.5189 16.7924 89.873 16.4598C90.1097 16.2427 90.1879 15.9081 90.1879 15.3956L90.1919 15.1178Z" fill="#1B1626"/>
    <path d="M103.839 18.5256C103.145 19.1709 102.225 19.5174 101.278 19.4901C100.235 19.4901 99.5056 19.1947 98.9149 18.6039V22.8001H95.6851V8.77557H98.8151V9.6422C99.4646 8.99272 100.155 8.66406 101.257 8.66406C102.282 8.66406 103.226 9.0201 103.837 9.63046C104.881 10.6751 104.815 12.5257 104.815 14.081C104.815 15.6362 104.883 17.481 103.839 18.5256ZM100.255 11.573C99.0538 11.573 98.9149 12.5375 98.9149 14.0732C98.9149 15.6088 99.0538 16.5752 100.255 16.5752C101.456 16.5752 101.595 15.6108 101.595 14.0732C101.595 12.5355 101.464 11.573 100.255 11.573Z" fill="#1B1626"/>
</svg>