<svg width="22" height="22" viewBox="0 0 22 22" fill="none" xmlns="http://www.w3.org/2000/svg">
<path d="M14.9895 3.24219C16.4302 3.32641 17.7268 4.03676 18.3983 5.61704C19.081 7.22171 18.7773 8.71444 17.6004 9.98997C16.7671 10.8909 15.8717 11.7365 14.9962 12.5987C14.6172 12.9754 14.0088 12.9865 13.6796 12.6408C13.3472 12.2906 13.3826 11.8096 13.7827 11.4085C14.6416 10.5463 15.5115 9.6963 16.3615 8.82637C17.6414 7.51649 17.0729 5.43308 15.3043 4.96321C14.5695 4.76817 13.8636 4.90337 13.304 5.42422C12.4041 6.26201 11.5575 7.153 10.6609 7.9919C10.4703 8.16921 10.1567 8.32325 9.91068 8.30774C9.2513 8.26673 8.91774 7.46884 9.37431 6.99342C10.3483 5.96557 11.36 4.97417 12.4074 4.02125C13.048 3.44499 13.8824 3.24773 14.9895 3.24219ZM3.24268 14.7707C3.24932 13.6692 3.63276 12.7161 4.40517 11.9315C5.25737 11.0638 6.12287 10.2094 6.98726 9.35276C7.39729 8.94606 7.90152 8.91503 8.2495 9.26411C8.61077 9.62981 8.5753 10.0886 8.14754 10.5186C7.32526 11.3442 6.48857 12.1587 5.67405 12.9932C4.6667 14.0227 4.62459 15.4124 5.55215 16.3466C6.44092 17.2398 7.90928 17.2442 8.83795 16.3399C9.68128 15.5165 10.5025 14.6699 11.3447 13.8465C11.85 13.3522 12.618 13.5284 12.7521 14.1934C12.7997 14.4327 12.7033 14.7929 12.5371 14.9691C11.6228 15.9332 10.7086 16.904 9.71231 17.7795C8.4933 18.85 7.06373 19.0273 5.57321 18.3779C4.13256 17.7506 3.246 16.3366 3.24268 14.7707ZM14.4033 8.48726C14.3501 8.587 14.288 8.80421 14.1484 8.94606C12.4706 10.6492 10.785 12.3448 9.09172 14.0327C8.73156 14.3928 8.21957 14.3684 7.88157 14.0271C7.54025 13.6825 7.54912 13.2093 7.92923 12.8281C9.59152 11.1613 11.2605 9.49794 12.9272 7.83675C13.1965 7.56746 13.5145 7.45443 13.8824 7.61512C14.2116 7.75697 14.3789 8.0185 14.4033 8.48726Z" fill="white"/>
</svg>
