<svg width="24" height="24" viewBox="0 0 24 24" fill="none" xmlns="http://www.w3.org/2000/svg">
<path fill-rule="evenodd" clip-rule="evenodd" d="M12 24C18.6274 24 24 18.6274 24 12C24 5.37257 18.6274 0 12 0C5.37257 0 0 5.37257 0 12C0 18.6274 5.37257 24 12 24Z" fill="#B1ECFF"/>
<path fill-rule="evenodd" clip-rule="evenodd" d="M13.4119 6.7236C13.4119 4.89883 12.5383 3.32972 11.8736 2.81908C11.8709 2.81732 11.8226 2.78961 11.8267 2.86292C11.8267 2.86361 11.8261 2.86397 11.8261 2.86502C11.7709 6.38798 10.0017 7.34263 9.02918 8.62905C6.78458 11.5972 8.87198 14.8515 10.9977 15.453C12.187 15.7893 10.7229 14.8574 10.5343 12.8889C10.3064 10.5096 13.4119 8.69323 13.4119 6.7236Z" fill="#1253FC"/>
<path fill-rule="evenodd" clip-rule="evenodd" d="M14.578 7.92294C14.5635 7.91347 14.5428 7.90717 14.5287 7.92961C14.4897 8.37327 14.0143 9.32161 13.412 10.1928C11.3688 13.1472 12.533 14.5718 13.1876 15.3368C13.5679 15.7808 13.1876 15.3368 14.1377 14.8829C14.2125 14.8472 15.9917 13.896 16.1844 11.7289C16.3709 9.63024 15.0485 8.30733 14.578 7.92294Z" fill="#00ACE4"/>
<path d="M9.08264 17.3755V20.0624H8.71889V18.8399H7.26951V20.0624H6.90576V17.3755H7.26951V18.5736H8.71889V17.3755H9.08264Z" fill="#1253FC"/>
<path d="M11.7644 19.7661L11.7626 20.0624H10.1069V17.3755H11.7626V17.6717H10.4707V18.5642H11.5169V18.8492H10.4707V19.7661H11.7644Z" fill="#1253FC"/>
<path d="M14.4363 19.5076C14.4563 19.5076 14.4738 19.5156 14.4888 19.532L14.6331 19.6876C14.5231 19.8151 14.3894 19.9145 14.2319 19.9857C14.0756 20.057 13.8862 20.0926 13.6638 20.0926C13.4713 20.0926 13.2963 20.0594 13.1388 19.9932C12.9813 19.9257 12.8469 19.832 12.7356 19.712C12.6244 19.5906 12.5381 19.4457 12.4769 19.277C12.4156 19.1082 12.385 18.9226 12.385 18.7201C12.385 18.5176 12.4169 18.332 12.4806 18.1632C12.5444 17.9945 12.6338 17.8495 12.7488 17.7282C12.865 17.6069 13.0038 17.5132 13.165 17.447C13.3263 17.3795 13.5044 17.3457 13.6994 17.3457C13.8906 17.3457 14.0594 17.3763 14.2056 17.4376C14.3519 17.4988 14.4806 17.582 14.5919 17.687L14.4719 17.8538C14.4644 17.8663 14.4544 17.8769 14.4419 17.8857C14.4306 17.8932 14.415 17.897 14.395 17.897C14.3725 17.897 14.345 17.8851 14.3125 17.8613C14.28 17.8363 14.2375 17.8088 14.185 17.7788C14.1325 17.7488 14.0669 17.722 13.9881 17.6982C13.9094 17.6732 13.8125 17.6607 13.6975 17.6607C13.5588 17.6607 13.4319 17.6851 13.3169 17.7338C13.2019 17.7813 13.1025 17.8507 13.0188 17.942C12.9363 18.0332 12.8719 18.1445 12.8256 18.2757C12.7794 18.407 12.7563 18.5551 12.7563 18.7201C12.7563 18.8875 12.78 19.037 12.8275 19.1682C12.8763 19.2995 12.9419 19.4106 13.0244 19.502C13.1081 19.592 13.2063 19.6608 13.3188 19.7082C13.4325 19.7556 13.555 19.7795 13.6863 19.7795C13.7663 19.7795 13.8381 19.7751 13.9019 19.7663C13.9669 19.7564 14.0263 19.7414 14.08 19.7213C14.135 19.7013 14.1856 19.6763 14.2319 19.6463C14.2794 19.615 14.3263 19.5783 14.3725 19.5357C14.3938 19.517 14.415 19.5076 14.4363 19.5076Z" fill="#1253FC"/>
<path d="M17.8237 18.7201C17.8237 18.9213 17.7918 19.1063 17.7281 19.2751C17.6643 19.4425 17.5743 19.5869 17.4581 19.7082C17.3418 19.8295 17.2018 19.9238 17.0381 19.9913C16.8756 20.0575 16.6956 20.0907 16.4981 20.0907C16.3006 20.0907 16.1206 20.0575 15.9581 19.9913C15.7956 19.9238 15.6562 19.8295 15.5399 19.7082C15.4237 19.5869 15.3337 19.4425 15.2699 19.2751C15.2062 19.1063 15.1743 18.9213 15.1743 18.7201C15.1743 18.5188 15.2062 18.3344 15.2699 18.167C15.3337 17.9982 15.4237 17.8532 15.5399 17.732C15.6562 17.6095 15.7956 17.5145 15.9581 17.447C16.1206 17.3795 16.3006 17.3457 16.4981 17.3457C16.6956 17.3457 16.8756 17.3795 17.0381 17.447C17.2018 17.5145 17.3418 17.6095 17.4581 17.732C17.5743 17.8532 17.6643 17.9982 17.7281 18.167C17.7918 18.3344 17.8237 18.5188 17.8237 18.7201ZM17.4506 18.7201C17.4506 18.5551 17.4281 18.407 17.3831 18.2757C17.3381 18.1445 17.2743 18.0338 17.1918 17.9438C17.1093 17.8526 17.0093 17.7826 16.8918 17.7338C16.7743 17.6851 16.6431 17.6607 16.4981 17.6607C16.3543 17.6607 16.2237 17.6851 16.1062 17.7338C15.9887 17.7826 15.8881 17.8526 15.8043 17.9438C15.7218 18.0338 15.6581 18.1445 15.6131 18.2757C15.5681 18.407 15.5456 18.5551 15.5456 18.7201C15.5456 18.8851 15.5681 19.0332 15.6131 19.1645C15.6581 19.2944 15.7218 19.405 15.8043 19.4963C15.8881 19.5863 15.9887 19.6557 16.1062 19.7045C16.2237 19.7519 16.3543 19.7757 16.4981 19.7757C16.6431 19.7757 16.7743 19.7519 16.8918 19.7045C17.0093 19.6557 17.1093 19.5863 17.1918 19.4963C17.2743 19.405 17.3381 19.2944 17.3831 19.1645C17.4281 19.0332 17.4506 18.8851 17.4506 18.7201Z" fill="#1253FC"/>
</svg>
