<svg width="115" height="24" viewBox="0 0 115 24" fill="none" xmlns="http://www.w3.org/2000/svg">
    <path d="M109.494 6.24811C108.395 6.12395 107.349 6.3288 106.443 6.77575V6.58021C106.443 6.33811 106.247 6.14258 106.005 6.14258H103.82C103.578 6.14258 103.382 6.33811 103.382 6.58021V11.6145C103.382 11.6394 103.379 11.6642 103.379 11.689C103.379 11.7139 103.379 11.7387 103.382 11.7635V20.392C103.382 20.6341 103.578 20.8297 103.82 20.8297H106.005C106.247 20.8297 106.443 20.6341 106.443 20.392V16.5992C107.172 16.9593 107.991 17.1641 108.86 17.1641C111.995 17.1641 114.525 14.5135 114.326 11.3383C114.165 8.71872 112.104 6.54297 109.494 6.24811ZM108.86 14.11C107.538 14.11 106.461 13.0454 106.443 11.7294V11.6549C106.464 10.3389 107.538 9.2743 108.86 9.2743C110.195 9.2743 111.281 10.3606 111.281 11.6952C111.281 13.0237 110.195 14.11 108.86 14.11Z" fill="white"/>
    <path d="M98.0839 6.78656C97.1776 6.33341 96.1286 6.12235 95.0267 6.2434C92.4071 6.53205 90.34 8.71091 90.1786 11.3398C89.9831 14.515 92.5095 17.1625 95.6444 17.1625C96.5196 17.1625 97.3514 16.9546 98.087 16.5852V16.7218C98.087 16.9639 98.2826 17.1594 98.5247 17.1594H100.71C100.952 17.1594 101.147 16.9639 101.147 16.7218V6.5724C101.147 6.33031 100.952 6.13477 100.71 6.13477H98.5247C98.2826 6.13477 98.087 6.33031 98.087 6.5724V6.78656H98.0839ZM95.6413 14.1084C94.3066 14.1084 93.2203 13.0221 93.2203 11.6874C93.2203 10.3528 94.3066 9.26648 95.6413 9.26648C96.9759 9.26648 98.0622 10.3528 98.0622 11.6874C98.0622 13.0221 96.9759 14.1084 95.6413 14.1084Z" fill="white"/>
    <path d="M34.6148 3.67089V8.56556H29.4842V3.67089C29.4842 3.4288 29.2887 3.23636 29.0497 3.23636H26.8646C26.6225 3.23636 26.427 3.4319 26.427 3.67089V16.803C26.427 17.0451 26.6225 17.2375 26.8646 17.2375H29.0497C29.2918 17.2375 29.4842 17.042 29.4842 16.803V11.6228H34.6148V16.803C34.6148 17.0451 34.8103 17.2375 35.0493 17.2375H37.2344C37.4765 17.2375 37.672 17.042 37.672 16.803V3.67089C37.672 3.4288 37.4765 3.23636 37.2344 3.23636H35.0493C34.8103 3.23326 34.6148 3.4288 34.6148 3.67089Z" fill="white"/>
    <path d="M50.1804 12.1942C50.1835 12.1384 50.1835 12.0825 50.1835 12.0266H50.1804V6.64467C50.1804 6.40257 49.9849 6.20703 49.7428 6.20703H47.5577C47.3156 6.20703 47.1201 6.40257 47.1201 6.64467V12.0204C47.0145 13.0943 46.1051 13.9355 45.0064 13.9355C43.8766 13.9355 42.9548 13.0478 42.8865 11.9366V6.64777C42.8865 6.40567 42.691 6.21014 42.4489 6.21014H40.2638C40.0217 6.21014 39.8262 6.40567 39.8262 6.64777V12.2625H39.8324C39.9534 15.0094 42.2285 17.2068 45.0033 17.2068C47.7781 17.2068 50.0531 15.0094 50.1742 12.2625H50.1773V12.1942H50.1804Z" fill="white"/>
    <path d="M79.6322 17.2271C79.8153 17.2271 79.9798 17.1122 80.0419 16.9415L80.5602 15.5417L80.5571 15.5386L82.0376 11.6061L83.5523 15.5479L83.5492 15.5604L84.0892 16.9477C84.1544 17.1154 84.3158 17.2271 84.4958 17.2271H85.8863C86.0694 17.2271 86.2308 17.1154 86.296 16.9446L86.7026 15.8676L86.8268 15.5417V15.5386L90.0485 6.97839C90.1571 6.69285 89.9461 6.38867 89.6388 6.38867H87.3047C87.1216 6.38867 86.9602 6.50041 86.895 6.67112L85.1755 11.2399L83.4188 6.66802C83.3536 6.50041 83.1922 6.38867 83.0122 6.38867H81.0382C80.8551 6.38867 80.6937 6.50041 80.6285 6.67112L78.909 11.2399L77.1554 6.66802C77.0902 6.50041 76.9288 6.38867 76.7457 6.38867H74.4054C74.0981 6.38867 73.8871 6.69595 73.9988 6.9815L77.2857 15.5479L77.2826 15.5542L77.7109 16.6622L77.8196 16.9477C77.8848 17.1154 78.0461 17.2271 78.2262 17.2271H79.6322V17.2271Z" fill="white"/>
    <path d="M61.0872 6.14453H59.0108C58.7811 6.14453 58.5948 6.33386 58.5948 6.56665V6.65045C57.791 6.278 56.8753 6.1197 55.9132 6.24696C53.7405 6.53561 52.0428 8.21476 51.7107 10.4215C51.242 13.5284 53.604 15.9028 56.5681 15.9028C57.2913 15.9028 57.9772 15.7414 58.5948 15.4559V15.788C58.5948 16.7346 57.853 17.6999 56.9374 17.8613C55.9877 18.0258 55.1341 17.5075 54.7679 16.7098C54.6996 16.5608 54.5537 16.4615 54.3892 16.4615H52.0272C51.8565 16.4615 51.7293 16.6198 51.7603 16.7905C52.1948 19.0997 54.1937 20.8503 56.5867 20.8503C59.228 20.8503 61.3883 18.7211 61.4969 16.058H61.5V6.56975C61.5 6.33386 61.3138 6.14453 61.0872 6.14453ZM56.5774 13.2615C55.4414 13.2615 54.5227 12.3428 54.5227 11.2068C54.5227 10.0739 55.4414 9.1521 56.5774 9.1521C57.7103 9.1521 58.6321 10.0708 58.6321 11.2068C58.629 12.3428 57.7103 13.2615 56.5774 13.2615Z" fill="white"/>
    <path d="M72.6736 11.9432C72.177 11.369 71.2862 10.9128 70.0292 10.5962L68.8218 10.2796C66.6119 9.71162 67.8131 8.7991 67.8131 8.7991C67.8162 8.7991 67.8193 8.7991 67.8193 8.79599C67.9807 8.70288 68.1793 8.64701 68.3935 8.64701C68.8498 8.64701 69.2315 8.89532 69.3308 9.23053C69.3557 9.2926 69.3743 9.36399 69.3774 9.45089C69.3898 9.64643 69.5947 9.79852 69.8461 9.79852H72.7916C73.0492 9.79852 73.2602 9.63712 73.2602 9.43538C73.2602 8.96981 73.133 8.51976 72.8785 8.10385C72.6271 7.69415 72.2794 7.33411 71.848 7.03305C71.4166 6.73508 70.8952 6.5023 70.2961 6.3378C69.7064 6.1795 69.0608 6.0957 68.378 6.0957C67.6983 6.0957 67.0496 6.1733 66.4536 6.32538C65.8484 6.48057 65.3083 6.71025 64.8676 6.99891C64.3896 7.29687 64.0079 7.65691 63.7347 8.06971C63.4554 8.48872 63.3157 8.94498 63.3157 9.43227C63.3157 10.2051 63.6416 10.8724 64.281 11.4156C64.8955 11.937 65.7429 12.3312 66.8013 12.5919L67.6176 12.7906C67.8255 12.8216 69.6505 13.163 69.396 14.1097C69.3805 14.1655 69.3402 14.2369 69.2967 14.2773C69.0608 14.4883 68.7132 14.6249 68.3252 14.6249C67.7169 14.6249 67.2079 14.2959 67.0744 13.8552C67.0589 13.821 67.0465 13.7869 67.0371 13.7527C66.9999 13.5789 66.8044 13.4486 66.5747 13.4486H63.6292C63.3654 13.4486 63.1543 13.6193 63.1636 13.8241C63.1854 14.3859 63.3467 14.8918 63.6478 15.3202C63.9427 15.7454 64.3369 16.1054 64.8117 16.3879C65.7491 16.959 66.9192 17.2476 68.288 17.2476C69.0143 17.2476 69.6971 17.1607 70.3178 16.9838C70.9417 16.8069 71.488 16.5617 71.9411 16.2513C72.3943 15.9409 72.7543 15.5747 73.015 15.1681C73.282 14.7522 73.4154 14.2959 73.4154 13.8117C73.4092 13.1382 73.1609 12.5112 72.6736 11.9432Z" fill="white"/>
    <path d="M21.1085 0.354596V5.36327H19.3059C19.4217 5.14411 19.466 4.8954 19.4389 4.64422C19.434 4.5999 19.4266 4.55311 19.4167 4.50633C19.4094 4.46939 19.3995 4.43245 19.3872 4.39551C19.3773 4.36597 19.3675 4.33642 19.3552 4.30933C19.3503 4.29455 19.3429 4.27978 19.3379 4.265C19.3256 4.23792 19.3109 4.20837 19.2961 4.18128C19.2936 4.17882 19.2936 4.17635 19.2912 4.17143C19.2715 4.13696 19.2493 4.10002 19.2247 4.06801C19.2222 4.06554 19.2222 4.06308 19.2222 4.06308C19.2 4.03353 19.1779 4.00152 19.1508 3.97197C19.1286 3.94488 19.1065 3.92026 19.0843 3.8981C19.0498 3.86362 19.0129 3.82915 18.9735 3.7996L18.8824 3.72818C18.6214 3.52134 18.2939 3.42776 17.9614 3.4647C17.629 3.5041 17.3335 3.66909 17.1242 3.93257L15.9914 5.3608H12.7681V0.354596C12.7681 0.160061 12.9281 0 13.1227 0H20.7539C20.9484 0 21.1085 0.160061 21.1085 0.354596Z" fill="#01AFA5"/>
    <path d="M21.1083 12.4223V23.5823C21.1083 23.7768 20.9507 23.9369 20.7537 23.9369H13.1225C12.928 23.9369 12.7679 23.7768 12.7679 23.5823V18.4259L9.67506 18.4185L9.40911 18.416H9.14316L0.800304 18.3938H0.714118C0.652556 18.3938 0.590995 18.3865 0.534358 18.3692C0.435859 18.3471 0.34721 18.3003 0.268411 18.2362C0.246248 18.2215 0.226547 18.2018 0.20931 18.1821C0.0738738 18.0466 0 17.8644 0 17.6723V17.5566C0 17.3645 0.0763368 17.1848 0.211773 17.0493C0.22901 17.0321 0.248711 17.0149 0.268411 17.0001C0.34721 16.9336 0.435859 16.8893 0.534358 16.8646C0.593458 16.8474 0.655019 16.84 0.716581 16.84H0.719044L0.721505 16.5741V16.3081C0.657481 16.3081 0.59592 16.2983 0.534358 16.281C0.435859 16.2564 0.34721 16.2096 0.268411 16.1456C0.248711 16.1308 0.231473 16.1136 0.214236 16.0964C0.0787998 15.9585 0.004926 15.7812 0.004926 15.5866V15.4709C0.00738847 15.2468 0.10835 15.0498 0.268411 14.9144C0.344747 14.8528 0.435859 14.8036 0.534358 14.7789C0.593458 14.7642 0.657481 14.7543 0.721505 14.7543H0.723968H0.916041V14.4884L0.918504 14.2224C0.876641 14.2224 0.837241 14.2199 0.800304 14.2126C0.70673 14.2027 0.618082 14.1756 0.534358 14.1338C0.438322 14.0894 0.352134 14.0279 0.275798 13.954L0.268411 13.9466C0.100962 13.7767 0.00985012 13.5502 0.00985012 13.3088C0.0123126 13.0626 0.10835 12.8385 0.268411 12.676C0.344747 12.5972 0.435859 12.5332 0.534358 12.4888C0.618082 12.4494 0.70673 12.4223 0.800304 12.41C0.839704 12.4051 0.879104 12.4002 0.920967 12.4002H0.923428L4.03846 12.4076L3.4844 11.7402C3.24062 11.43 3.29233 10.9769 3.6026 10.7306L3.69617 10.6592C4.00645 10.4154 4.45954 10.4671 4.70579 10.7799L5.9912 12.4125L9.1407 12.4223H9.6726L12.7655 12.4322V12.4223H21.1083V12.4223Z" fill="#01AFA5"/>
    <path d="M9.14069 18.9494V23.5838C9.14069 23.7783 8.98063 23.9384 8.78609 23.9384H1.15489C0.957892 23.9384 0.800293 23.7783 0.800293 23.5838V18.9297L9.14069 18.9494Z" fill="white"/>
    <path d="M22.2287 8.96833V9.08406C22.2287 9.4362 21.9751 9.72923 21.6402 9.79326C21.5983 9.80311 21.554 9.80557 21.5097 9.80557V10.3375C21.554 10.3375 21.5983 10.3399 21.6402 10.3498C21.9751 10.4113 22.2287 10.7019 22.2287 11.0565V11.1722C22.2287 11.5244 21.9751 11.8174 21.6402 11.879C21.5983 11.8888 21.554 11.8913 21.5097 11.8913H9.14311L6.25217 11.8839L5.12435 10.4507C4.69835 9.90899 3.90789 9.81542 3.36861 10.2414L3.2775 10.3153C2.79732 10.6921 2.67173 11.3495 2.9426 11.874L0.928299 11.8691H0.925836C0.883974 11.8691 0.844575 11.8716 0.805176 11.874V0.354596C0.805176 0.160061 0.962773 0 1.15977 0H8.79098C8.98551 0 9.14557 0.160061 9.14557 0.354596V5.89516H16.2523L17.5451 4.265C17.6633 4.11479 17.8332 4.01876 18.0253 3.99659C18.2173 3.97443 18.4045 4.02861 18.5547 4.14681L18.6458 4.21822C18.796 4.33642 18.8896 4.50879 18.9142 4.6984C18.9364 4.89047 18.8822 5.07762 18.7665 5.22291L18.2075 5.89516H21.3225C21.3422 5.89516 21.3594 5.89516 21.3791 5.89762C21.4727 5.90255 21.5614 5.91979 21.6451 5.9518C21.9898 6.08231 22.2336 6.41474 22.2336 6.80381C22.2336 7.19535 21.9898 7.52532 21.6451 7.65829C21.5614 7.6903 21.4727 7.71 21.3791 7.71247C21.3594 7.71493 21.3422 7.71493 21.3225 7.71493V8.24682H21.5146C21.5589 8.24682 21.6032 8.24929 21.6451 8.25914C21.9751 8.32316 22.2287 8.61619 22.2287 8.96833Z" fill="white"/>
</svg>