<svg width="105" height="24" viewBox="0 0 105 24" fill="none" xmlns="http://www.w3.org/2000/svg">
    <path d="M7.93944 18.0768V22.7168C7.93944 22.7985 7.90697 22.8769 7.84917 22.9347C7.79137 22.9925 7.71298 23.025 7.63124 23.025H1.00492C0.923177 23.025 0.844785 22.9925 0.786986 22.9347C0.729187 22.8769 0.696716 22.7985 0.696716 22.7168V18.0614L7.93944 18.0768Z" fill="#DADFEA"/>
    <path d="M18.338 1.28006V6.28216H16.7646C16.8649 6.09043 16.9051 5.87298 16.8802 5.65806C16.8757 5.61817 16.869 5.57857 16.8602 5.5394C16.8538 5.50695 16.845 5.47502 16.834 5.44386C16.8263 5.41812 16.8171 5.3929 16.8062 5.36835L16.7908 5.32982C16.78 5.30517 16.7677 5.28051 16.7554 5.2574C16.7384 5.22587 16.7194 5.19549 16.6984 5.16648C16.6797 5.1389 16.6591 5.11264 16.6367 5.08789C16.6184 5.06525 16.5989 5.04364 16.5782 5.02316C16.5481 4.99293 16.5162 4.96462 16.4826 4.93841L16.404 4.87677C16.2926 4.7873 16.1645 4.72086 16.0272 4.68131C15.8899 4.64176 15.7461 4.62988 15.6042 4.64637C15.4622 4.66286 15.325 4.70738 15.2004 4.77736C15.0758 4.84733 14.9664 4.94136 14.8784 5.05398L13.8953 6.29449H11.0953V1.28006C11.0953 1.19832 11.1277 1.11993 11.1855 1.06213C11.2433 1.00433 11.3217 0.971863 11.4035 0.971863H18.0298C18.1115 0.971863 18.1899 1.00433 18.2477 1.06213C18.3055 1.11993 18.338 1.19832 18.338 1.28006Z" fill="#6840DD"/>
    <path d="M18.3381 12.4121V22.7199C18.3381 22.8016 18.3056 22.88 18.2478 22.9378C18.19 22.9956 18.1116 23.0281 18.0299 23.0281H11.4035C11.3218 23.0281 11.2434 22.9956 11.1856 22.9378C11.1278 22.88 11.0953 22.8016 11.0953 22.7199V17.6253H8.40938H7.94708L0.704354 17.6068H0.616517C0.564376 17.6072 0.512466 17.5999 0.462416 17.5853C0.377592 17.5648 0.298544 17.5253 0.231266 17.4697C0.21272 17.4556 0.19521 17.4401 0.178871 17.4235C0.120675 17.3641 0.074893 17.2937 0.0442007 17.2165C0.0135084 17.1392 -0.00147869 17.0566 0.000114979 16.9735V16.8733C4.4659e-05 16.7913 0.0163655 16.71 0.04812 16.6343C0.0798745 16.5586 0.126423 16.4901 0.185036 16.4326C0.200351 16.417 0.216837 16.4026 0.234348 16.3895C0.300247 16.3332 0.378332 16.2931 0.462416 16.2723C0.512497 16.2579 0.564386 16.2506 0.616517 16.2508V15.7885C0.564334 15.7878 0.512483 15.7801 0.462416 15.7653C0.377396 15.7438 0.29837 15.7032 0.231266 15.6467L0.186577 15.6112C0.12656 15.5528 0.0790737 15.4828 0.0470152 15.4055C0.0149568 15.3281 -0.00100122 15.245 0.000114979 15.1613V15.0611C0.000108604 14.9795 0.016304 14.8987 0.0477618 14.8234C0.0792196 14.7481 0.125314 14.6798 0.18337 14.6225C0.241427 14.5652 0.310291 14.5199 0.385968 14.4894C0.461645 14.4589 0.542629 14.4437 0.624222 14.4447H0.793732V13.9824C0.759387 13.9855 0.72483 13.9855 0.690485 13.9824C0.610362 13.9684 0.533228 13.9408 0.462416 13.9007C0.378951 13.863 0.302791 13.8108 0.23743 13.7466C0.134912 13.6416 0.0636397 13.5102 0.0315908 13.367C-0.000458056 13.2238 0.00798175 13.0745 0.0559654 12.9358C0.103949 12.7972 0.189583 12.6746 0.30328 12.5818C0.416977 12.489 0.55425 12.4298 0.699731 12.4106C0.734621 12.4082 0.769629 12.4082 0.804519 12.4106H3.50898L3.02665 11.8204C2.92441 11.6903 2.87788 11.525 2.89723 11.3606C2.91658 11.1963 3.00024 11.0463 3.12989 10.9435L3.21003 10.8819C3.34032 10.7798 3.50575 10.7336 3.67009 10.7532C3.83443 10.7728 3.98429 10.8568 4.08686 10.9867L5.20409 12.4044H7.93937H8.40167L11.0953 12.4198V12.4121H18.3381Z" fill="#6840DD"/>
    <path d="M19.3876 9.41348V9.51365C19.3879 9.66001 19.3369 9.80184 19.2434 9.91447C19.1499 10.0271 19.0199 10.1034 18.876 10.1301C18.8385 10.1375 18.8003 10.1411 18.762 10.1408V10.6031C18.8003 10.6028 18.8385 10.6064 18.876 10.6139C19.0208 10.6389 19.1518 10.7147 19.2456 10.8277C19.3394 10.9407 19.3898 11.0835 19.3876 11.2303V11.3305C19.3879 11.4769 19.3369 11.6187 19.2434 11.7313C19.1499 11.8439 19.0199 11.9202 18.876 11.9469C18.8385 11.9544 18.8003 11.958 18.762 11.9577H8.02274H5.51244L4.53236 10.7141C4.35492 10.4884 4.09549 10.342 3.8106 10.3068C3.5257 10.2716 3.23843 10.3504 3.01139 10.5261L2.9328 10.5893C2.73441 10.746 2.59683 10.967 2.54368 11.2142C2.49052 11.4614 2.52513 11.7194 2.64155 11.9438H0.892508C0.857065 11.9438 0.821622 11.9438 0.78772 11.9438V1.28006C0.78772 1.19832 0.820191 1.11993 0.87799 1.06213C0.935789 1.00433 1.01418 0.971863 1.09592 0.971863H7.72224C7.80398 0.971863 7.88237 1.00433 7.94017 1.06213C7.99797 1.11993 8.03044 1.19832 8.03044 1.28006V6.74446H14.1945L15.3163 5.32828C15.3666 5.26316 15.4293 5.20875 15.501 5.16827C15.5726 5.12778 15.6516 5.10204 15.7333 5.09257C15.815 5.08309 15.8978 5.09006 15.9768 5.11308C16.0557 5.13609 16.1293 5.17468 16.1931 5.22658L16.2717 5.28822C16.4011 5.39048 16.4847 5.53977 16.5043 5.70348C16.524 5.86719 16.478 6.03202 16.3765 6.16197L15.8911 6.74446H18.5956C18.612 6.74293 18.6285 6.74293 18.6449 6.74446C18.724 6.74753 18.8021 6.76367 18.876 6.79224C19.0262 6.84929 19.1555 6.95067 19.2467 7.08291C19.338 7.21516 19.3868 7.37203 19.3868 7.53269C19.3868 7.69335 19.338 7.85022 19.2467 7.98246C19.1555 8.11471 19.0262 8.21609 18.876 8.27314C18.8021 8.30171 18.724 8.31785 18.6449 8.32091C18.6285 8.32244 18.612 8.32244 18.5956 8.32091V8.78321H18.762C18.8003 8.78291 18.8385 8.78652 18.876 8.794C19.0205 8.82077 19.1509 8.89751 19.2444 9.01077C19.3379 9.12403 19.3887 9.26659 19.3876 9.41348Z" fill="#DADFEA"/>
    <path d="M31.3122 19.3735V13.8197H27.6501V19.3735H24.2031V5.349H27.6501V10.7464H31.3122V5.349H34.7553V19.3735H31.3122Z" fill="#DADFEA"/>
    <path d="M43.206 19.3736V18.507C42.5405 19.1349 41.6601 19.4848 40.745 19.4851C40.3072 19.5016 39.8704 19.4299 39.4608 19.2743C39.0511 19.1187 38.6769 18.8824 38.3603 18.5794C37.4546 17.6736 37.2981 16.6681 37.2981 15.5471V8.77649H40.5279V15.1187C40.5279 16.3394 41.3945 16.5761 41.8269 16.5761C42.2592 16.5761 43.1278 16.3394 43.1278 15.1187V8.77649H46.3576V19.3736H43.206Z" fill="#DADFEA"/>
    <path d="M52.6195 22.9182C50.9645 22.9182 49.7223 22.6228 48.6405 21.5488L50.6496 19.5397C51.1406 20.0327 51.7314 20.2107 52.4611 20.2107C53.8207 20.2107 54.1748 19.2835 54.1748 18.5948V17.826C53.5879 18.4129 52.8739 18.7142 51.8898 18.7142C51.4337 18.7306 50.979 18.6553 50.5525 18.4927C50.1261 18.33 49.7366 18.0834 49.4073 17.7673C48.4429 16.8029 48.4292 15.6154 48.4292 13.6905C48.4292 11.7655 48.4488 10.578 49.4073 9.6136C49.7406 9.29755 50.1335 9.05104 50.5631 8.88848C50.9927 8.72591 51.4504 8.65054 51.9094 8.66677C52.3511 8.64483 52.7922 8.72118 53.2009 8.89033C53.6096 9.05947 53.9756 9.31719 54.2726 9.6449V8.77632H57.4026V18.6046C57.4046 21.1067 55.5148 22.9182 52.6195 22.9182ZM52.9149 11.5718C51.7314 11.5718 51.6531 12.595 51.6531 13.6787C51.6531 14.7625 51.7314 15.7856 52.9149 15.7856C54.0985 15.7856 54.1748 14.7625 54.1748 13.6787C54.1748 12.595 54.0965 11.5738 52.9149 11.5738V11.5718Z" fill="#DADFEA"/>
    <path d="M63.4303 19.4907C61.8339 19.4907 60.2787 19.4124 58.8213 17.955L60.9086 15.8677C61.7948 16.7539 62.9373 16.7539 63.489 16.7539C63.9624 16.7539 64.8681 16.615 64.8681 16.0633C64.8681 15.7679 64.7292 15.453 64.0993 15.3943L62.4639 15.2358C60.6328 15.0597 59.3925 14.2322 59.3925 12.1645C59.3925 9.81693 61.4994 8.65686 63.6063 8.65686C65.3396 8.65686 66.7364 8.91313 67.783 9.95778L65.7934 11.9473C65.2613 11.4152 64.3751 11.3174 63.5476 11.3174C62.7651 11.3174 62.505 11.691 62.505 11.9277C62.505 12.0451 62.4639 12.4403 63.1936 12.5146L64.829 12.6731C67.0533 12.8922 68.0119 14.2127 68.0119 15.9068C68.0119 18.4069 65.8913 19.4907 63.4303 19.4907Z" fill="#DADFEA"/>
    <path d="M80.7274 19.3736H78.1412L76.2279 13.5635L74.3186 19.3736H71.7402L68.5476 8.77649H71.9554L73.2759 14.2717L75.107 8.77649H77.3528L79.1839 14.2717L80.5043 8.77649H83.9122L80.7274 19.3736Z" fill="#DADFEA"/>
    <path d="M90.2701 19.3735V18.5069C89.6206 19.1564 89.0298 19.4714 87.9069 19.4714C86.8427 19.4714 85.9507 19.1173 85.3638 18.5265C84.7769 17.9357 84.4443 17.0299 84.4443 16.044C84.4443 14.4496 85.5281 12.9707 88.0497 12.9707H90.2016V12.6968C90.2016 11.7304 89.7282 11.3763 88.6053 11.3763C87.7798 11.3763 87.4316 11.5719 86.9132 12.0845L84.8943 10.0852C85.9761 9.00335 86.9621 8.66687 88.754 8.66687C91.7882 8.66687 93.4217 9.92867 93.4217 12.509V19.3833L90.2701 19.3735ZM90.1919 15.1187H88.5525C87.9226 15.1187 87.5294 15.4727 87.5294 15.9657C87.5294 16.4587 87.8835 16.8519 88.5916 16.8519C89.2235 16.8519 89.5189 16.7932 89.873 16.4607C90.1097 16.2435 90.1879 15.909 90.1879 15.3964L90.1919 15.1187Z" fill="#DADFEA"/>
    <path d="M103.839 18.5265C103.145 19.1718 102.225 19.5182 101.278 19.4909C100.235 19.4909 99.5056 19.1955 98.9149 18.6047V22.8009H95.6851V8.77642H98.8151V9.64305C99.4646 8.99357 100.155 8.66492 101.257 8.66492C102.282 8.66492 103.226 9.02096 103.837 9.63132C104.881 10.676 104.815 12.5266 104.815 14.0818C104.815 15.6371 104.883 17.4818 103.839 18.5265ZM100.255 11.5739C99.0538 11.5739 98.9149 12.5383 98.9149 14.074C98.9149 15.6097 99.0538 16.5761 100.255 16.5761C101.456 16.5761 101.595 15.6116 101.595 14.074C101.595 12.5364 101.464 11.5739 100.255 11.5739Z" fill="#DADFEA"/>
</svg>