<svg width="80" height="80" viewBox="0 0 80 80" fill="none" xmlns="http://www.w3.org/2000/svg">
<path fill-rule="evenodd" clip-rule="evenodd" d="M40 0C17.9081 0 0 17.9081 0 40C0 62.0919 17.9081 80 40 80C62.0919 80 80 62.0919 80 40C80 17.9081 62.0919 0 40 0Z" fill="#141414"/>
<path fill-rule="evenodd" clip-rule="evenodd" d="M40.0335 9.00009L21 40.5799L40.0335 51.8247V9.00009Z" fill="#D0D0D0"/>
<path fill-rule="evenodd" clip-rule="evenodd" d="M40.0337 9.00009V51.8247L59.059 40.5799L40.0337 9.00009Z" fill="white"/>
<path fill-rule="evenodd" clip-rule="evenodd" d="M21 40.5798L40.0335 51.8246V31.9236L21 40.5798Z" fill="#B8B8B8"/>
<path fill-rule="evenodd" clip-rule="evenodd" d="M40.0335 71V55.4307L21 44.186L40.0335 71Z" fill="#898989"/>
<path fill-rule="evenodd" clip-rule="evenodd" d="M40.0337 55.4309V71.0002L59.074 44.1857L40.0337 55.4309Z" fill="#B8B8B8"/>
<path fill-rule="evenodd" clip-rule="evenodd" d="M40.0254 51.8249L59.0589 40.5603L40.0254 31.8883V51.8249Z" fill="#898989"/>
</svg>
