<svg width="80" height="80" viewBox="0 0 80 80" fill="none" xmlns="http://www.w3.org/2000/svg">
<circle cx="40" cy="40" r="40" fill="#21A078"/>
<path fill-rule="evenodd" clip-rule="evenodd" d="M43.8 29.9989V33.9008C53 34.4861 60 36.6321 60 38.9732C60 41.3144 53 43.4604 44 43.8506V57.8974H35.6V43.8506C26.6 43.4604 20 41.3144 20 38.9732C20 36.6321 26.6 34.6812 35.6 34.0959V30.194H24.2V22H55.2V29.9989H43.8ZM22.2 37.9978C22.2 39.7536 30 41.3144 39.8 41.3144C49.6 41.3144 57.6 39.9487 57.6 38.1929C57.6 36.6321 51.8 35.4615 44 35.0713V39.7536H40C39.1733 39.7536 38.4 39.7015 37.6525 39.6512C36.9533 39.6041 36.2766 39.5585 35.6 39.5585V35.8517V34.8763C27.8 35.2664 22.2 36.437 22.2 37.9978Z" fill="white"/>
</svg>
